<?xml version="1.0" encoding="UTF-8" standalone="no"?>
<!-- Created with Inkscape (http://www.inkscape.org/) -->

<svg
   xmlns:svg="http://www.w3.org/2000/svg"
   xmlns="http://www.w3.org/2000/svg"
   version="1.1"
   width="320"
   height="320"
   id="svg2"
   xml:space="preserve"><defs
     id="defs6"><clipPath
       id="clipPath50"><path
         d="M 0,0 612,0 612,792 0,792 0,0 z"
         id="path52" /></clipPath><clipPath
       id="clipPath74"><path
         d="M 0,0 612,0 612,792 0,792 0,0 z"
         id="path76" /></clipPath><clipPath
       id="clipPath158"><path
         d="M 0,0 612,0 612,792 0,792 0,0 z"
         id="path160" /></clipPath><clipPath
       id="clipPath182"><path
         d="M 0,0 612,0 612,792 0,792 0,0 z"
         id="path184" /></clipPath><clipPath
       id="clipPath210"><path
         d="M 0,0 612,0 612,792 0,792 0,0 z"
         id="path212" /></clipPath><clipPath
       id="clipPath242"><path
         d="M 0,0 612,0 612,792 0,792 0,0 z"
         id="path244" /></clipPath></defs><g
     transform="matrix(1.25,0,0,-1.25,0,320)"
     id="g12"><g
       clip-path="url(#clipPath50)"
       id="g48"><g
         transform="translate(321.7047,725.4722)"
         id="g54" /><g
         transform="translate(336.631,730.6055)"
         id="g58" /><g
         transform="translate(342.632,735.9048)"
         id="g62" /></g><g
       clip-path="url(#clipPath74)"
       id="g72"><g
         transform="translate(365.3131,729.6245)"
         id="g78" /><g
         transform="translate(384.0934,734.293)"
         id="g82" /><g
         transform="translate(394.546,723.8882)"
         id="g86" /><g
         transform="translate(413.1354,730.6055)"
         id="g90" /><g
         transform="translate(315.3678,711.9741)"
         id="g94" /><g
         transform="translate(324.8629,705.3652)"
         id="g98" /><g
         transform="translate(349.8414,699.3555)"
         id="g102" /><g
         transform="translate(358.5148,699.6289)"
         id="g106" /></g><g
       transform="translate(381.3331,703.1821)"
       id="g122" /><path
       d="m 115.96144,8.0000029 -107.9614488,0 0,239.9999971 107.9614488,0 0,-239.9999971 z"
       id="path42"
       style="fill:#1a64b7;fill-opacity:1;fill-rule:nonzero;stroke:none" /><path
       d="m 248,8.0000029 -132.03856,0 L 115.96144,248 248,248 248,8.0000029 z"
       id="path44"
       style="fill:#ee293d;fill-opacity:1;fill-rule:nonzero;stroke:none" /><g
       transform="matrix(1.0000042,0,0,1.0030132,214.55226,191.19455)"
       id="g126"><path
         d="m 0,0 c 0,-2.131 1.203,-3.304 3.44,-3.304 1.394,0 2.73,0.573 3.905,1.144 L 8.03,-4.668 C 6.909,-5.272 5.133,-6.01 3.003,-6.01 c -4.178,0 -6.608,2.567 -6.608,6.992 0,4.125 1.966,6.939 6.254,6.939 4.042,0 5.653,-3.005 5.653,-6.364 L 8.302,0 0,0 z M 2.486,5.296 C 0.71,5.296 0,3.688 0,2.102 l 4.887,0 c 0,1.719 -0.545,3.194 -2.401,3.194 m -13.7053,-7.4791 0,15.292 3.523,0 0,-13.41 c 0,-0.901 0.163,-1.667 0.463,-2.239 0.164,-0.653 0.684,-0.682 1.666,-0.764 l 0,-2.484 c 0,0 -0.982,-0.222 -1.911,-0.222 -2.704,0 -3.741,1.45 -3.741,3.827 m -6.8779,-3.5532 0,10.733 -1.529,0.329 0,2.322 5.079,0 0,-13.384 -3.55,0 z m -0.109,18.845 3.604,0 0,-3.249 -3.604,0 0,3.249 z m -15.8314,-18.845 0,18.845 3.579,0 0,-4.943 c 0,-0.93 -0.301,-1.859 -0.356,-2.075 0.766,0.927 1.884,1.83 3.797,1.83 3.851,0 4.942,-1.995 4.942,-5.383 l 0,-8.274 -3.632,0 0,7.948 c 0,0.355 -0.055,0.628 -0.191,0.819 -0.11,1.502 -0.875,2.157 -2.213,2.157 -0.927,0 -1.72,-0.409 -2.347,-0.819 l 0,-10.105 -3.579,0 z m -8.6734,-0.2734 c -5.189,0 -8.165,3.497 -8.165,9.643 0,5.652 3.139,9.476 8.246,9.476 2.513,0 4.562,-0.573 6.062,-1.612 l -1.284,-2.812 c -0.954,0.736 -2.648,1.256 -4.56,1.256 -3.14,0 -4.697,-2.242 -4.697,-6.283 0,-4.259 1.637,-6.579 4.643,-6.579 1.993,0 3.633,0.654 4.888,1.582 l 1.147,-2.731 c -1.83,-1.254 -3.741,-1.94 -6.28,-1.94 M -67.6895,0 c 0,-2.131 1.202,-3.304 3.442,-3.304 1.393,0 2.73,0.573 3.905,1.144 l 0.683,-2.508 c -1.12,-0.604 -2.895,-1.342 -5.025,-1.342 -4.178,0 -6.61,2.567 -6.61,6.992 0,4.125 1.967,6.939 6.255,6.939 4.041,0 5.653,-3.005 5.653,-6.364 l 0,-1.557 -8.303,0 z m 2.486,5.296 c -1.775,0 -2.486,-1.608 -2.486,-3.194 l 4.889,0 c 0,1.719 -0.546,3.194 -2.403,3.194 m -11.9811,1.3129 c -0.026,0.272 -0.354,1.312 -0.354,2.457 l 0,4.043 3.55,0 0,-18.845 -2.895,0 -0.409,1.474 c -0.547,-0.819 -1.83,-1.748 -3.551,-1.748 -3.032,0 -5.461,2.186 -5.461,6.967 0,4.423 2.511,6.964 5.761,6.964 1.503,0 2.621,-0.493 3.359,-1.312 m -0.354,-2.183 c -0.52,0.435 -1.394,0.819 -2.431,0.819 -1.693,0 -2.759,-1.148 -2.759,-4.262 0,-3.195 1.01,-4.397 2.704,-4.397 0.902,0 1.803,0.435 2.486,1.147 l 0,6.693 z M 20.583,25.2403 c 0,-4.56 -2.293,-6.991 -6.308,-6.991 -4.014,0 -6.254,2.405 -6.254,6.991 0,3.932 2.186,6.937 6.254,6.937 4.042,0 6.308,-3.005 6.308,-6.937 m -3.686,0 c 0,3.223 -0.957,4.343 -2.622,4.343 -1.665,0 -2.595,-1.149 -2.595,-4.343 0,-3.112 0.848,-4.369 2.595,-4.369 1.748,0 2.622,1.176 2.622,4.369 M 1.9936,18.523 l 0,7.945 c 0,2.025 -0.764,2.976 -2.403,2.976 -0.927,0 -1.72,-0.406 -2.348,-0.818 l 0,-10.103 -3.578,0 0,13.381 2.403,0 0.602,-1.529 c 0.764,0.899 2.238,1.802 4.232,1.802 3.387,0 4.725,-1.995 4.725,-5.38 l 0,-8.274 -3.633,0 z M -8.459,28.9278 c -0.437,0.136 -1.038,0.219 -1.667,0.219 -0.955,0 -1.801,-0.41 -2.403,-0.903 l 0,-9.721 -3.55,0 0,13.381 2.485,0 c 0.137,-0.629 0.274,-1.202 0.383,-1.803 l 0.109,0 c 0.41,0.958 1.612,2.051 3.196,2.051 0.709,0 1.229,-0.112 1.528,-0.193 -0.027,-1.01 -0.027,-2.021 -0.081,-3.031 m -18.7803,-4.6685 c 0,-2.131 1.202,-3.307 3.44,-3.307 1.393,0 2.73,0.573 3.905,1.147 l 0.684,-2.511 c -1.121,-0.601 -2.896,-1.339 -5.026,-1.339 -4.178,0 -6.61,2.567 -6.61,6.991 0,4.123 1.968,6.937 6.256,6.937 4.04,0 5.652,-3.005 5.652,-6.361 l 0,-1.557 -8.301,0 z m 2.485,5.296 c -1.776,0 -2.485,-1.611 -2.485,-3.194 l 4.887,0 c 0,1.719 -0.545,3.194 -2.402,3.194 m -12.4215,-11.0323 0,10.73 -1.529,0.331 0,2.32 5.079,0 0,-13.381 -3.55,0 z m -0.108,18.842 3.604,0 0,-3.249 -3.604,0 0,3.249 z m -12.6366,-6.8254 c 0.601,0.819 2.047,1.638 3.55,1.638 3.14,0 5.408,-2.24 5.408,-6.937 0,-4.616 -2.731,-6.991 -5.844,-6.991 -1.913,0 -3.032,0.738 -3.878,1.884 l -0.656,-1.611 -1.912,0 0,18.843 3.578,0 0,-4.669 -0.246,-2.157 z m 0.246,-8.304 c 0.546,-0.735 1.474,-1.364 2.431,-1.364 1.556,0 2.702,1.147 2.702,4.369 0,3.194 -1.01,4.315 -2.648,4.315 -0.901,0 -1.884,-0.464 -2.485,-1.063 l 0,-6.257 z m -6.247,3.0047 c 0,-4.56 -2.293,-6.991 -6.307,-6.991 -4.016,0 -6.255,2.405 -6.255,6.991 0,3.932 2.186,6.937 6.255,6.937 4.041,0 6.307,-3.005 6.307,-6.937 m -3.685,0 c 0,3.223 -0.956,4.343 -2.622,4.343 -1.666,0 -2.595,-1.149 -2.595,-4.343 0,-3.112 0.846,-4.369 2.595,-4.369 1.748,0 2.622,1.176 2.622,4.369 M -70.8477,20.107 c -2.485,-1.202 -4.453,-1.857 -7.156,-1.857 -5.516,0 -8.301,4.314 -8.301,9.72 0,5.191 2.785,9.395 8.602,9.395 2.84,0 4.643,-0.737 6.09,-1.692 -0.492,-0.928 -1.01,-1.803 -1.529,-2.732 -1.012,0.71 -2.54,1.256 -4.48,1.256 -3.359,0 -4.916,-2.511 -4.916,-6.169 0,-4.126 1.722,-6.776 4.889,-6.776 1.83,0 3.086,0.574 3.495,0.795 l 0,3.305 -2.73,0 0,2.618 6.036,0 0,-7.863 z"
         id="path128"
         style="fill:#ffffff;fill-opacity:1;fill-rule:nonzero;stroke:none" /></g><g
       transform="matrix(1.0000042,0,0,1.0030132,71.724959,200.64734)"
       id="g130"><path
         d="M 0,0 0,-3.733 C 0.674,-2.146 0.367,-0.831 0,0"
         id="path132"
         style="fill:#ffffff;fill-opacity:1;fill-rule:nonzero;stroke:none" /></g><g
       transform="matrix(1.0000042,0,0,1.0030132,79.05269,220.97892)"
       id="g134"><path
         d="m 0,0 c 0.103,0.033 -0.048,0.521 0.435,0.556 0.44,0.023 1.1,-0.361 1.181,-0.775 0.098,-0.475 -0.295,-1.627 1.224,-1.798 0,0 -0.013,-0.237 -0.033,-0.482 l -0.003,0 C 2.775,-2.769 2.708,-3.053 2.582,-3.3 c 0.095,0.004 0.186,0.007 0.281,0.003 2.029,-0.096 3.173,0.062 3.752,0.67 0,0 0.35,0.372 0.525,0.734 0.518,1.064 0.591,2.019 0.316,2.797 l -0.005,0 C 7.439,0.952 7.42,1.007 7.4,1.061 7.363,1.153 7.319,1.244 7.271,1.331 6.811,2.135 5.631,3.164 4.164,3.656 4.071,3.678 3.971,3.69 3.864,3.693 3.852,3.69 3.838,3.701 3.838,3.711 c 0,0.004 0.026,0.018 0.062,0.026 l -0.007,0.003 0.009,0 C 3.939,3.749 4.22,3.729 4.22,3.729 5.31,3.601 7.15,2.519 7.522,1.423 7.876,1.632 8.191,2.255 8.244,2.782 l 0.003,0 c 0.028,0.103 -0.043,0.761 0.238,1.345 0.086,0.18 0,0.378 -0.15,0.455 C 8.185,4.654 7.98,4.586 7.895,4.414 7.626,3.854 6.985,4.161 7.254,4.725 7.339,4.907 7.254,5.107 7.106,5.181 6.953,5.247 6.75,5.189 6.664,5.017 6.405,4.472 5.787,4.776 6.04,5.317 6.127,5.492 6.044,5.693 5.894,5.767 5.747,5.836 5.537,5.78 5.45,5.602 5.185,5.038 4.544,5.353 4.813,5.913 4.896,6.091 4.813,6.292 4.663,6.369 4.513,6.435 4.307,6.377 4.225,6.201 4.025,5.784 3.866,5.54 3.685,5.349 4.906,5.104 6.176,4.446 7.001,3.591 c 0,0 0.338,-0.374 0.374,-0.446 0,-0.004 0.006,-0.004 0.008,-0.011 0,0 -0.002,0 -0.008,0.007 C 7.405,3.079 7.417,3.031 7.409,3.018 7.397,3.002 7.375,3.011 7.37,3.025 7.246,3.181 7.115,3.309 6.985,3.404 5.628,4.539 4.44,5.009 3.465,5.145 2.81,5.068 2.999,4.333 3.069,3.857 1.972,4.093 1.137,3.28 1.069,2.52 1.069,2.235 1.128,1.943 1.276,1.623 1.29,1.609 1.283,1.575 1.265,1.57 1.223,1.546 1.062,1.675 0.972,1.901 0.909,2.067 0.859,2.264 0.833,2.461 -0.061,2.407 -0.882,1.934 -0.817,1.109 -0.786,0.619 -0.212,0.016 0,0 M 3.158,1.254 C 3.387,1.532 3.465,0.334 4.4,0.68 3.731,-0.125 2.834,0.706 3.158,1.254 M 3.087,1.85 C 3.445,2.063 3.766,2.776 4.311,2.428 4.566,2.289 4.818,2.027 5.102,1.821 5.385,1.616 5.703,1.438 5.835,1.178 5.997,0.854 5.564,0.081 5.078,0.77 4.755,1.283 4.301,2.213 3.583,1.85 2.996,1.554 2.594,1.13 2.444,1.526 2.402,1.728 2.865,1.723 3.087,1.85 M 0.527,1.697 C 0.376,1.36 -0.111,1.36 -0.176,0.933 -0.58,1.298 0.171,2.122 0.527,1.697"
         id="path136"
         style="fill:#ffffff;fill-opacity:1;fill-rule:nonzero;stroke:none" /></g><g
       transform="matrix(1.0000042,0,0,1.0030132,103.59869,182.84185)"
       id="g138"><path
         d="m 0,0 c -0.625,0.752 -2.27,0.379 -2.27,0.379 0.887,2.633 -1.549,3.338 -1.549,3.338 -0.87,0.23 -1.444,0.065 -1.815,-0.19 C -5.644,3.52 -5.651,3.516 -5.658,3.511 -5.664,3.506 -5.67,3.501 -5.676,3.494 -5.739,3.446 -5.797,3.406 -5.852,3.351 -6.068,3.121 -6.207,2.817 -6.207,2.471 c 0,-0.696 0.569,-1.264 1.269,-1.264 0.269,0 0.519,0.086 0.725,0.23 0.25,0.182 0.438,0.445 0.506,0.752 0.339,-0.215 0.468,-0.593 0.468,-0.593 0.707,-2.244 -1.824,-3.051 -1.824,-3.051 -5.566,-1.671 -8.98,1.202 -8.98,1.202 l 0.971,0.526 c 0.336,0.149 0.643,0.191 0.884,0.191 -0.005,-0.047 -0.013,-0.104 -0.013,-0.161 0,-0.608 0.495,-1.097 1.101,-1.097 0.612,0 1.101,0.489 1.101,1.097 0,0.2 -0.052,0.387 -0.145,0.545 l 0.012,0.007 c -0.048,0.075 -0.084,0.117 -0.084,0.117 -0.657,0.987 -2.902,0.336 -2.902,0.336 0.749,1.849 0.08,3.18 0.08,3.18 -0.413,0.681 -0.338,0.936 -0.338,0.936 0,0.656 -0.157,0.718 -0.157,0.718 -0.336,0.464 -0.945,0.214 -0.945,0.214 -0.908,-0.197 -1.102,0.172 -1.102,0.172 -0.747,0.527 -1.081,0.208 -1.081,0.208 -0.321,-0.222 0.124,-0.782 0.124,-0.782 -0.798,0 -1.034,-1.02 -1.034,-1.02 -0.334,-1.693 1.069,-1.835 1.069,-1.835 1.004,-0.054 1.019,0.765 1.019,0.765 0.127,0.782 -0.987,0.826 -0.987,0.826 0.192,0.463 0.524,0.454 0.524,0.454 1.169,0.289 1.707,-1.029 1.707,-1.029 0.927,-1.48 -0.271,-2.872 -0.271,-2.872 -0.189,-0.205 -0.383,-0.081 -0.383,-0.081 -0.653,0.275 -1.609,0.979 -1.609,0.979 -0.027,0.019 -0.056,0.041 -0.084,0.06 l -0.394,0 c -0.432,0 -0.9,-0.146 -1.216,-0.265 0.453,-0.478 1.92,-1.71 1.92,-1.71 -1.107,-0.862 -1.738,-0.267 -1.738,-0.267 -0.53,0.571 -0.405,1.536 -0.324,1.923 C -18.384,1.864 -18.425,1.845 -18.458,1.83 -18.964,1.604 -19.48,1.399 -20,1.195 c 0.526,-0.9 1.348,-2.27 1.348,-2.27 -1.271,-0.468 -1.549,1.239 -1.606,2.167 -0.25,-0.092 -0.499,-0.189 -0.747,-0.281 0.062,-0.207 0.067,-0.365 0.067,-0.365 0.086,-0.944 0.939,-2.073 0.939,-2.073 -0.907,0.19 -1.465,-0.398 -1.465,-0.398 -0.578,-0.488 -0.567,-1.153 -0.53,-1.417 0.019,-0.338 0.297,-0.613 0.644,-0.613 0.353,0 0.642,0.295 0.642,0.648 0,0.35 -0.272,0.631 -0.614,0.65 0.284,0.698 0.959,0.138 0.959,0.138 0.981,-0.885 -0.562,-1.881 -0.562,-1.881 -1.1,-0.733 -2.151,0.672 -2.151,0.672 1.163,2.057 1.379,3.494 1.335,4.384 -0.396,-0.136 -0.797,-0.268 -1.202,-0.397 0.551,-1.853 -0.741,-2.916 -0.741,-2.916 -0.37,0.253 -0.419,1.25 -0.419,1.25 -0.114,0.432 -0.245,0.835 -0.386,1.211 -0.346,-0.096 -0.694,-0.187 -1.047,-0.275 0.394,-1.166 0.56,-2.871 0.56,-2.871 -0.205,-0.243 -0.832,-0.307 -0.832,-0.307 -0.905,-0.079 -0.432,0.429 -0.432,0.429 0.451,0.383 0.356,0.658 0.356,0.658 -0.271,0.622 -1.263,0.043 -1.263,0.043 -1.322,-0.732 -0.926,-1.513 -0.926,-1.513 0.163,-0.476 1.503,-0.943 1.503,-0.943 -0.722,-0.551 -2.111,-0.322 -2.282,-0.288 -0.039,0.384 -0.314,0.697 -0.682,0.796 -0.052,0.016 -0.087,0.023 -0.087,0.023 -0.485,0.047 -0.732,-0.155 -0.864,-0.349 -0.065,-0.086 -0.119,-0.182 -0.155,-0.288 l -0.816,0.173 c -0.568,0.086 -0.891,1.717 -1.065,3.136 -0.225,-0.029 -0.454,-0.056 -0.681,-0.081 0.217,-1.518 0.499,-2.869 0.499,-2.869 -0.282,0 -1.48,0.836 -1.48,0.836 -1.493,0.906 -2.519,0.615 -2.553,0.601 -0.75,-0.132 -1.32,-0.787 -1.32,-1.576 0,-0.882 0.721,-1.603 1.602,-1.603 0.868,0 1.577,0.696 1.6,1.558 0.567,-0.27 1.088,-0.591 1.088,-0.591 1.436,-0.955 2.785,-1.064 3.15,-1.068 0.102,-0.538 0.575,-0.939 1.138,-0.939 0.437,0 0.823,0.24 1.013,0.609 3.067,0.1 4.191,1.458 4.191,1.458 0.326,0.423 0.398,0.174 0.398,0.174 1.128,-1.628 3.301,-0.637 3.301,-0.637 0.422,0.209 0.512,-0.066 0.512,-0.066 0.44,-0.698 1.118,-0.331 1.118,-0.331 0.862,0.445 0.354,0.986 0.354,0.986 -0.288,0.303 0.062,0.288 0.062,0.288 1.022,-0.149 1.224,0.44 1.224,0.44 0.21,0.464 -0.522,0.87 -0.522,0.87 -0.203,0.255 0.191,0.462 0.191,0.462 0.609,0.352 0.51,0.701 0.51,0.701 0.765,-0.012 0.707,0.336 0.707,0.336 0.017,0.306 -0.945,0.289 -0.945,0.289 -0.751,0.079 -0.591,0.464 -0.591,0.464 1.119,0.046 2.81,0.54 2.81,0.54 2.471,-2.014 6.14,-2.496 6.14,-2.496 0.071,-0.366 -0.056,-0.874 -0.074,-0.936 -0.021,0.006 -0.042,0.006 -0.065,0.006 -0.319,0 -0.584,-0.259 -0.584,-0.585 0,-0.317 0.265,-0.58 0.584,-0.58 0.058,0 0.167,0.026 0.167,0.026 1.175,0.314 1.269,2.043 1.269,2.043 3.349,-0.321 5.63,2.204 5.63,2.204 0.333,0.281 0.492,0.195 0.563,0.107 0.006,0 0.006,-0.003 0.012,-0.011 0.173,-0.216 0.438,-0.351 0.739,-0.351 0.324,0 0.614,0.163 0.784,0.409 0.111,0.202 0.159,0.381 0.171,0.537 l 0,0.012 0,0.011 C 0.206,-0.236 0,0 0,0"
         id="path140"
         style="fill:#ffffff;fill-opacity:1;fill-rule:nonzero;stroke:none" /></g><g
       transform="matrix(1.0000042,0,0,1.0030132,63.272823,178.52519)"
       id="g142"><path
         d="M 0,0 C 0.32,0.155 0.383,0.523 0.383,0.523 0.446,1.437 -0.22,1.853 -0.236,1.862 -0.632,1.853 -1.03,1.843 -1.434,1.838 l -0.003,0 -0.004,0 C -1.843,1.843 -2.24,1.853 -2.639,1.862 -2.653,1.853 -3.319,1.437 -3.257,0.523 c 0,0 0.063,-0.368 0.382,-0.523 0,0 -0.846,-0.357 -0.859,-0.943 0,0 -0.096,-0.434 0.651,-1.039 0,0 0.547,-0.609 0.706,-1.071 0,0 0.045,-0.651 0.94,-0.651 0.896,0 0.941,0.651 0.941,0.651 0.161,0.462 0.704,1.071 0.704,1.071 0.747,0.605 0.656,1.039 0.656,1.039 C 0.848,-0.357 0,0 0,0"
         id="path144"
         style="fill:#ffffff;fill-opacity:1;fill-rule:nonzero;stroke:none" /></g><g
       transform="matrix(1.0000042,0,0,1.0030132,69.52985,182.24767)"
       id="g146"><path
         d="M 0,0 0.437,0.047 0.157,0.559 0,0 z"
         id="path148"
         style="fill:#ffffff;fill-opacity:1;fill-rule:nonzero;stroke:none" /></g><g
       transform="matrix(1.0000042,0,0,1.0030132,54.728387,182.22239)"
       id="g150"><path
         d="M 0,0 0.436,-0.042 0.266,0.518 0,0 z"
         id="path152"
         style="fill:#ffffff;fill-opacity:1;fill-rule:nonzero;stroke:none" /></g><g
       transform="matrix(1.0000042,0,0,1.0030132,-178.00179,-516.29606)"
       id="g154"><g
         clip-path="url(#clipPath158)"
         id="g156"><g
           transform="translate(231.0031,697.6367)"
           id="g162"><path
             d="m 0,0 c -0.018,0.01 -0.042,0.01 -0.072,0.015 l -0.092,-0.681 c 0.149,-0.014 0.254,-0.021 0.307,-0.01 0.055,0.01 0.1,0.044 0.136,0.092 0.038,0.046 0.059,0.109 0.074,0.201 0.016,0.124 0,0.215 -0.054,0.273 C 0.246,-0.051 0.149,-0.012 0,0"
             id="path164"
             style="fill:#ffffff;fill-opacity:1;fill-rule:nonzero;stroke:none" /></g><g
           transform="translate(237.3702,697.1172)"
           id="g166"><path
             d="m 0,0 c -0.149,0.004 -0.265,-0.052 -0.343,-0.167 -0.079,-0.115 -0.126,-0.302 -0.133,-0.561 -0.01,-0.282 0.018,-0.481 0.088,-0.606 0.07,-0.121 0.18,-0.195 0.326,-0.195 0.155,-0.006 0.271,0.042 0.355,0.152 0.082,0.113 0.128,0.307 0.138,0.59 0.012,0.253 -0.019,0.45 -0.085,0.579 C 0.275,-0.077 0.161,-0.007 0,0"
             id="path168"
             style="fill:#ffffff;fill-opacity:1;fill-rule:nonzero;stroke:none" /></g><g
           transform="translate(242.9171,697.1216)"
           id="g170"><path
             d="m 0,0 c -0.15,-0.004 -0.259,-0.069 -0.331,-0.194 -0.068,-0.119 -0.097,-0.306 -0.087,-0.564 0.011,-0.276 0.055,-0.477 0.137,-0.595 0.08,-0.118 0.193,-0.181 0.341,-0.175 0.151,0.007 0.264,0.075 0.341,0.186 0.072,0.114 0.104,0.315 0.091,0.592 C 0.483,-0.493 0.436,-0.296 0.357,-0.172 0.281,-0.055 0.164,0.007 0,0"
             id="path172"
             style="fill:#ffffff;fill-opacity:1;fill-rule:nonzero;stroke:none" /></g></g></g><g
       transform="matrix(1.0000042,0,0,1.0030132,49.764867,182.95088)"
       id="g174"><path
         d="M 0,0 0.431,-0.079 0.306,0.49 0,0 z"
         id="path176"
         style="fill:#ffffff;fill-opacity:1;fill-rule:nonzero;stroke:none" /></g><g
       transform="matrix(1.0000042,0,0,1.0030132,-178.00179,-516.29606)"
       id="g178"><g
         clip-path="url(#clipPath182)"
         id="g180"><g
           transform="translate(219.3087,700.4912)"
           id="g186"><path
             d="m 0,0 -0.243,-0.661 0.084,-0.03 c 0.133,-0.051 0.232,-0.054 0.297,-0.008 0.063,0.042 0.117,0.11 0.153,0.208 0.032,0.083 0.039,0.159 0.029,0.228 C 0.306,-0.201 0.275,-0.149 0.231,-0.116 0.188,-0.08 0.11,-0.039 0,0"
             id="path188"
             style="fill:#ffffff;fill-opacity:1;fill-rule:nonzero;stroke:none" /></g><g
           transform="translate(221.4342,699.772)"
           id="g190"><path
             d="m 0,0 c -0.146,0.043 -0.272,0.021 -0.377,-0.069 -0.106,-0.093 -0.197,-0.256 -0.277,-0.505 -0.082,-0.266 -0.108,-0.468 -0.075,-0.608 0.036,-0.139 0.124,-0.23 0.266,-0.277 0.143,-0.044 0.274,-0.027 0.379,0.062 0.11,0.081 0.207,0.253 0.291,0.526 0.077,0.242 0.101,0.44 0.068,0.579 C 0.243,-0.147 0.15,-0.052 0,0"
             id="path192"
             style="fill:#ffffff;fill-opacity:1;fill-rule:nonzero;stroke:none" /></g><g
           transform="translate(223.4855,699.1499)"
           id="g194"><path
             d="m 0,0 c -0.019,0.007 -0.042,0.01 -0.071,0.019 l -0.178,-0.66 c 0.146,-0.043 0.244,-0.058 0.306,-0.053 0.052,0.004 0.101,0.033 0.144,0.069 0.042,0.048 0.077,0.108 0.099,0.197 0.03,0.121 0.027,0.217 -0.019,0.275 C 0.234,-0.087 0.141,-0.043 0,0"
             id="path196"
             style="fill:#ffffff;fill-opacity:1;fill-rule:nonzero;stroke:none" /></g><g
           transform="translate(256.6525,699.1255)"
           id="g198"><path
             d="M 0,0 C -0.068,0.032 -0.173,0.024 -0.318,-0.013 -0.334,-0.019 -0.357,-0.03 -0.385,-0.038 l 0.181,-0.653 c 0.145,0.036 0.242,0.075 0.287,0.108 0.043,0.033 0.078,0.078 0.091,0.133 0.015,0.062 0.012,0.13 -0.013,0.216 C 0.126,-0.11 0.074,-0.038 0,0"
             id="path200"
             style="fill:#ffffff;fill-opacity:1;fill-rule:nonzero;stroke:none" /></g></g></g><g
       transform="matrix(1.0000042,0,0,1.0030132,82.338703,185.14086)"
       id="g202"><path
         d="M 0,0 0.41,0.157 0.012,0.581 0,0 z"
         id="path204"
         style="fill:#ffffff;fill-opacity:1;fill-rule:nonzero;stroke:none" /></g><g
       transform="matrix(1.0000042,0,0,1.0030132,-178.00179,-516.29606)"
       id="g206"><g
         clip-path="url(#clipPath210)"
         id="g208"><g
           transform="translate(262.0275,701.6211)"
           id="g214"><path
             d="m 0,0 c -0.172,0.125 -0.389,0.187 -0.619,0.187 -0.237,0 -0.413,-0.073 -0.416,-0.073 -0.823,-0.219 -8.482,-3.595 -21.155,-3.602 -12.674,0.007 -20.333,3.383 -21.158,3.602 0,0 -0.176,0.073 -0.415,0.073 -0.23,0 -0.443,-0.062 -0.618,-0.187 l -2.597,-2.04 0.013,0 c 0.757,0 1.599,-0.395 1.625,-0.406 6.757,-2.961 14.496,-4.177 23.15,-4.258 8.655,0.081 16.394,1.297 23.146,4.258 0.031,0.011 0.873,0.406 1.629,0.406 l 0.007,0 L 0,0 z m -24.683,-3.795 0.541,-0.026 -0.635,-0.402 -0.116,0 0.21,0.428 z m -17.264,2.008 c -0.042,-0.114 -0.112,-0.193 -0.207,-0.249 -0.099,-0.055 -0.203,-0.069 -0.316,-0.059 -0.113,0.009 -0.253,0.051 -0.419,0.11 l -0.128,0.041 -0.149,-0.403 c -0.025,-0.076 -0.031,-0.132 -0.017,-0.174 0.015,-0.037 0.064,-0.078 0.146,-0.108 l 0.039,-0.011 -0.05,-0.138 -0.919,0.336 0.049,0.139 0.029,-0.01 c 0.087,-0.034 0.146,-0.038 0.184,-0.019 0.036,0.024 0.071,0.072 0.097,0.153 l 0.367,1.006 c 0.029,0.072 0.036,0.131 0.022,0.175 -0.019,0.038 -0.067,0.071 -0.148,0.102 l -0.04,0.019 0.049,0.135 0.693,-0.235 c 0.172,-0.065 0.302,-0.12 0.394,-0.163 0.092,-0.038 0.169,-0.1 0.231,-0.168 0.063,-0.074 0.101,-0.148 0.114,-0.234 0.016,-0.079 0.009,-0.168 -0.021,-0.245 m 2.087,-1.111 c -0.078,-0.243 -0.227,-0.421 -0.454,-0.541 -0.226,-0.119 -0.488,-0.129 -0.786,-0.038 -0.199,0.062 -0.366,0.164 -0.494,0.297 -0.131,0.135 -0.201,0.282 -0.225,0.45 -0.02,0.168 -0.008,0.321 0.038,0.46 0.048,0.158 0.136,0.296 0.27,0.414 0.132,0.117 0.284,0.194 0.455,0.218 0.17,0.025 0.338,0.008 0.509,-0.048 0.304,-0.091 0.515,-0.258 0.632,-0.483 0.115,-0.233 0.133,-0.471 0.055,-0.729 m 1.827,-0.894 c 0.058,-0.192 0.106,-0.302 0.141,-0.35 0.036,-0.044 0.079,-0.074 0.13,-0.087 l -0.036,-0.143 -0.549,0.149 c -0.034,0.066 -0.083,0.239 -0.156,0.524 -0.035,0.138 -0.059,0.227 -0.079,0.27 -0.016,0.044 -0.039,0.073 -0.064,0.091 -0.027,0.019 -0.09,0.044 -0.185,0.066 l -0.113,-0.41 c -0.019,-0.08 -0.022,-0.145 0,-0.179 0.016,-0.039 0.069,-0.073 0.158,-0.095 l 0.026,-0.01 -0.036,-0.14 -0.941,0.251 0.038,0.146 0.037,-0.014 c 0.086,-0.021 0.145,-0.021 0.18,0.006 0.036,0.025 0.066,0.072 0.082,0.156 l 0.276,1.028 c 0.024,0.087 0.027,0.138 0.006,0.182 -0.02,0.038 -0.072,0.064 -0.157,0.088 l -0.032,0.012 0.037,0.146 0.701,-0.194 0.157,-0.037 c 0.155,-0.041 0.266,-0.073 0.336,-0.099 0.07,-0.036 0.132,-0.08 0.191,-0.131 0.061,-0.063 0.1,-0.128 0.122,-0.206 0.02,-0.084 0.02,-0.164 10e-4,-0.236 -0.055,-0.21 -0.211,-0.323 -0.467,-0.333 0.052,-0.056 0.117,-0.205 0.196,-0.451 m 2.962,-1.188 -1.61,0.349 0.03,0.139 0.027,0 c 0.09,-0.019 0.151,-0.019 0.185,0.01 0.031,0.023 0.053,0.08 0.072,0.158 l 0.224,1.046 c 0.016,0.079 0.016,0.137 -0.004,0.179 -0.023,0.039 -0.077,0.065 -0.166,0.087 l -0.022,0.004 0.031,0.139 0.945,-0.198 -0.032,-0.142 -0.034,0.006 c -0.087,0.016 -0.148,0.016 -0.184,-0.015 -0.032,-0.024 -0.055,-0.076 -0.073,-0.159 l -0.212,-1.007 c -0.018,-0.076 -0.025,-0.127 -0.022,-0.158 0.004,-0.02 0.022,-0.049 0.054,-0.069 0.034,-0.029 0.096,-0.054 0.188,-0.072 0.156,-0.033 0.278,-0.019 0.373,0.043 0.093,0.059 0.166,0.148 0.223,0.283 l 0.143,-0.034 -0.136,-0.589 z m 1.984,-0.36 -0.885,0.164 0.031,0.146 c 0.077,-0.018 0.126,-0.018 0.148,-0.008 0.022,0.015 0.036,0.029 0.039,0.053 0.004,0.024 10e-4,0.053 -0.008,0.09 l -0.011,0.041 -0.026,0.138 -0.544,0.105 -0.053,-0.087 c -0.037,-0.057 -0.059,-0.098 -0.062,-0.121 -0.007,-0.046 0.003,-0.076 0.028,-0.098 0.026,-0.022 0.072,-0.037 0.139,-0.048 l -0.028,-0.149 -0.587,0.105 0.029,0.144 c 0.107,-0.024 0.221,0.057 0.33,0.24 l 0.794,1.277 0.155,-0.029 0.309,-1.477 c 0.029,-0.15 0.068,-0.242 0.104,-0.275 0.042,-0.03 0.081,-0.058 0.124,-0.062 l -0.026,-0.149 z m 3.044,-0.428 -0.561,0.075 c -0.043,0.069 -0.117,0.235 -0.222,0.502 -0.049,0.134 -0.09,0.22 -0.113,0.259 -0.025,0.043 -0.054,0.067 -0.081,0.078 -0.024,0.018 -0.088,0.032 -0.188,0.046 l -0.055,-0.423 c -0.01,-0.084 -0.003,-0.142 0.019,-0.176 0.023,-0.04 0.079,-0.066 0.166,-0.079 l 0.034,0 -0.022,-0.143 -0.967,0.123 0.02,0.153 0.036,-0.006 c 0.092,-0.014 0.151,0 0.183,0.025 0.032,0.029 0.052,0.085 0.064,0.162 l 0.141,1.059 c 0.007,0.084 0.002,0.143 -0.021,0.179 -0.025,0.037 -0.078,0.059 -0.167,0.073 l -0.034,0.004 0.019,0.148 0.718,-0.098 0.161,-0.02 c 0.161,-0.019 0.276,-0.04 0.352,-0.063 0.067,-0.021 0.137,-0.054 0.202,-0.103 0.068,-0.047 0.116,-0.113 0.149,-0.188 0.029,-0.074 0.041,-0.148 0.029,-0.235 -0.027,-0.208 -0.166,-0.339 -0.421,-0.387 0.061,-0.051 0.142,-0.19 0.249,-0.417 0.088,-0.182 0.15,-0.294 0.186,-0.33 0.042,-0.039 0.09,-0.065 0.142,-0.068 l -0.018,-0.15 z m 1.984,-0.198 -0.894,0.085 0.015,0.146 c 0.081,-0.004 0.131,-0.004 0.15,0.007 0.023,0.015 0.035,0.035 0.037,0.061 0.004,0.022 -0.003,0.049 -0.015,0.088 l -0.014,0.041 -0.036,0.136 -0.553,0.055 -0.048,-0.083 c -0.029,-0.065 -0.045,-0.104 -0.049,-0.132 0,-0.039 0.008,-0.072 0.033,-0.093 0.031,-0.019 0.078,-0.033 0.146,-0.038 l -0.016,-0.149 -0.596,0.058 0.015,0.15 c 0.114,-0.011 0.219,0.072 0.314,0.257 l 0.694,1.342 0.158,-0.016 0.421,-1.455 c 0.04,-0.139 0.082,-0.229 0.126,-0.262 0.043,-0.036 0.085,-0.051 0.126,-0.052 l -0.014,-0.146 z m 1.945,1.546 -1.135,-1.448 0.417,-0.032 c 0.115,-0.004 0.202,-0.004 0.259,0.015 0.052,0.017 0.109,0.057 0.155,0.105 0.046,0.052 0.091,0.128 0.127,0.226 l 0.151,-0.013 -0.071,-0.536 -1.619,0.118 0.007,0.117 1.118,1.452 -0.29,0.025 c -0.185,0.015 -0.311,0 -0.375,-0.036 -0.062,-0.033 -0.118,-0.117 -0.175,-0.252 l -0.138,0.014 0.06,0.477 1.516,-0.112 -0.007,-0.12 z m 2.148,-1.546 c -0.189,-0.173 -0.435,-0.249 -0.746,-0.241 -0.214,0.008 -0.399,0.058 -0.56,0.154 -0.161,0.101 -0.266,0.225 -0.332,0.379 -0.064,0.153 -0.09,0.301 -0.085,0.447 0.004,0.17 0.055,0.318 0.154,0.472 0.094,0.157 0.221,0.263 0.38,0.328 0.158,0.073 0.324,0.098 0.498,0.098 0.323,-0.017 0.568,-0.115 0.742,-0.306 0.172,-0.187 0.255,-0.42 0.246,-0.688 -0.013,-0.251 -0.111,-0.467 -0.297,-0.643 m 2.65,1.397 c -0.048,0 -0.087,-0.012 -0.129,-0.029 -0.041,-0.027 -0.066,-0.062 -0.078,-0.1 -0.017,-0.04 -0.024,-0.095 -0.024,-0.172 l -0.007,-1.384 -0.168,0 -1.169,1.326 -0.004,-0.826 c 0,-0.136 0.021,-0.223 0.071,-0.26 0.048,-0.039 0.111,-0.058 0.186,-0.058 l 0,-0.143 -0.678,0 0,0.143 c 0.056,0 0.108,0.014 0.149,0.039 0.046,0.033 0.072,0.067 0.081,0.1 0.013,0.039 0.019,0.095 0.02,0.179 l 0.005,0.918 c 0,0.186 -0.085,0.28 -0.256,0.28 l 0,0.151 0.61,-0.011 0.987,-1.105 0.004,0.66 c 0,0.196 -0.084,0.298 -0.25,0.299 l 0,0.146 0.65,-0.004 0,-0.149 z m 3.008,-1.325 c -0.174,-0.192 -0.412,-0.288 -0.721,-0.305 -0.215,-0.008 -0.404,0.029 -0.569,0.113 -0.168,0.081 -0.288,0.201 -0.363,0.347 -0.077,0.15 -0.119,0.296 -0.127,0.448 -0.003,0.158 0.031,0.318 0.121,0.479 0.083,0.158 0.201,0.276 0.352,0.353 0.153,0.087 0.315,0.13 0.493,0.135 0.318,0.014 0.572,-0.067 0.761,-0.245 0.187,-0.177 0.287,-0.395 0.295,-0.662 0.01,-0.255 -0.068,-0.477 -0.242,-0.663 m 1.536,-0.145 -0.012,0.149 0.023,0.005 c 0.09,0.004 0.149,0.029 0.172,0.059 0.025,0.042 0.032,0.098 0.025,0.181 l -0.091,1.062 c -0.009,0.083 -0.031,0.139 -0.058,0.167 -0.031,0.032 -0.09,0.044 -0.178,0.04 l -0.027,-0.008 -0.012,0.146 0.965,0.086 0.014,-0.148 -0.036,-0.006 c -0.093,-0.004 -0.149,-0.027 -0.171,-0.062 -0.024,-0.034 -0.034,-0.095 -0.027,-0.176 l 0.09,-1.023 c 0.007,-0.078 0.013,-0.133 0.024,-0.155 0.012,-0.022 0.036,-0.046 0.08,-0.058 0.034,-0.017 0.101,-0.017 0.197,-0.01 0.156,0.01 0.27,0.062 0.344,0.149 0.07,0.087 0.113,0.197 0.132,0.33 l 0.143,0.015 0.043,-0.598 -1.64,-0.145 z m 2.76,0.271 -0.016,0.144 c 0.081,0.009 0.132,0.023 0.146,0.045 0.018,0.017 0.024,0.037 0.024,0.058 -0.003,0.019 -0.017,0.048 -0.036,0.078 l -0.018,0.041 -0.067,0.124 -0.552,-0.062 -0.024,-0.09 c -0.018,-0.072 -0.028,-0.112 -0.024,-0.137 0.006,-0.048 0.024,-0.074 0.054,-0.085 0.028,-0.018 0.076,-0.018 0.143,-0.011 l 0.021,-0.146 -0.594,-0.072 -0.015,0.146 c 0.112,0.017 0.194,0.12 0.248,0.324 l 0.396,1.455 0.152,0.022 0.726,-1.329 c 0.073,-0.125 0.128,-0.21 0.177,-0.232 0.047,-0.022 0.092,-0.026 0.136,-0.026 l 0.016,-0.142 -0.893,-0.105 z m 3.106,1.779 c -0.036,0.081 -0.072,0.139 -0.114,0.187 -0.042,0.043 -0.083,0.073 -0.123,0.079 -0.039,0.014 -0.097,0.006 -0.172,-0.006 l -0.288,-0.042 0.095,-0.62 0.145,0.023 c 0.065,0.014 0.112,0.035 0.133,0.068 0.025,0.03 0.029,0.092 0.021,0.181 l 0.144,0.025 0.099,-0.611 -0.142,-0.026 c -0.02,0.096 -0.047,0.158 -0.08,0.177 -0.03,0.032 -0.085,0.039 -0.15,0.024 l -0.139,-0.024 0.077,-0.484 c 0.014,-0.076 0.037,-0.134 0.067,-0.163 0.035,-0.026 0.096,-0.035 0.187,-0.019 l 0.038,0.007 0.023,-0.146 -0.964,-0.158 -0.021,0.149 0.026,0.009 c 0.089,0.007 0.14,0.036 0.165,0.072 0.02,0.038 0.023,0.096 0.011,0.176 l -0.168,1.06 c -0.013,0.081 -0.034,0.132 -0.069,0.161 -0.033,0.029 -0.093,0.035 -0.18,0.023 l -0.033,-0.008 -0.023,0.146 1.497,0.241 0.089,-0.478 -0.151,-0.023 z m 2.096,0.446 0.118,-0.592 c 0.027,-0.127 0.037,-0.233 0.037,-0.317 -0.003,-0.084 -0.023,-0.165 -0.071,-0.253 -0.043,-0.088 -0.115,-0.168 -0.213,-0.227 -0.098,-0.072 -0.218,-0.116 -0.348,-0.145 -0.134,-0.023 -0.262,-0.027 -0.378,0 -0.117,0.022 -0.213,0.061 -0.284,0.123 -0.066,0.055 -0.122,0.125 -0.161,0.199 -0.037,0.072 -0.061,0.167 -0.087,0.276 l -0.137,0.706 c -0.013,0.081 -0.041,0.133 -0.077,0.162 -0.03,0.028 -0.098,0.028 -0.194,0.007 l -0.03,0.142 0.937,0.187 0.029,-0.146 -0.03,-0.008 c -0.09,-0.014 -0.14,-0.043 -0.161,-0.076 -0.026,-0.041 -0.026,-0.099 -0.006,-0.177 l 0.135,-0.702 c 0.026,-0.127 0.054,-0.222 0.091,-0.295 0.036,-0.067 0.091,-0.124 0.172,-0.157 0.083,-0.044 0.174,-0.053 0.269,-0.029 0.11,0.017 0.194,0.062 0.26,0.134 0.066,0.071 0.101,0.143 0.108,0.231 0.007,0.08 0,0.194 -0.027,0.339 l -0.118,0.593 c -0.035,0.183 -0.146,0.255 -0.318,0.22 l -0.029,0.145 0.66,0.129 0.032,-0.144 c -0.042,-0.01 -0.081,-0.024 -0.116,-0.054 -0.036,-0.03 -0.063,-0.066 -0.067,-0.109 -0.01,-0.04 -0.007,-0.091 0.004,-0.162 m 0.822,-1.231 -0.034,0.143 0.034,0.01 c 0.086,0.023 0.135,0.048 0.156,0.085 0.022,0.044 0.022,0.098 0.005,0.182 l -0.247,1.041 c -0.021,0.085 -0.048,0.133 -0.084,0.158 -0.035,0.023 -0.093,0.023 -0.18,0.009 l -0.035,-0.009 -0.03,0.143 1.499,0.35 0.134,-0.45 -0.144,-0.034 c -0.048,0.072 -0.09,0.134 -0.13,0.173 -0.047,0.037 -0.086,0.062 -0.122,0.066 -0.035,0.008 -0.089,0 -0.166,-0.018 L -7.664,-3 l 0.143,-0.611 0.163,0.039 c 0.076,0.022 0.126,0.045 0.146,0.076 0.019,0.038 0.023,0.103 0.003,0.187 l 0.146,0.037 0.14,-0.603 -0.144,-0.028 c -0.002,0.01 -0.002,0.02 -0.006,0.024 -0.012,0.052 -0.032,0.093 -0.063,0.125 -0.033,0.037 -0.091,0.05 -0.182,0.025 l -0.166,-0.04 0.101,-0.435 c 0.023,-0.084 0.038,-0.135 0.053,-0.153 0.017,-0.027 0.045,-0.045 0.09,-0.048 0.051,-0.011 0.11,0 0.201,0.014 0.109,0.034 0.191,0.062 0.241,0.103 0.046,0.045 0.084,0.105 0.111,0.186 0.026,0.081 0.038,0.168 0.038,0.252 l 0.146,0.038 0.121,-0.584 -1.606,-0.378 z m 3.355,0.847 c -0.065,0.048 -0.199,0.173 -0.4,0.381 -0.1,0.098 -0.17,0.165 -0.21,0.194 -0.036,0.026 -0.071,0.039 -0.1,0.043 -0.032,0 -0.097,-0.01 -0.192,-0.039 l 0.119,-0.411 c 0.018,-0.076 0.047,-0.131 0.083,-0.153 0.038,-0.022 0.096,-0.022 0.183,0 l 0.028,0.009 0.042,-0.143 -0.937,-0.26 -0.038,0.145 0.031,0.004 c 0.086,0.025 0.138,0.055 0.157,0.099 0.018,0.037 0.015,0.092 -0.004,0.175 l -0.289,1.027 c -0.024,0.084 -0.049,0.132 -0.087,0.155 -0.035,0.024 -0.097,0.024 -0.178,0 l -0.038,-0.005 -0.04,0.144 0.695,0.192 0.161,0.045 c 0.153,0.038 0.267,0.07 0.342,0.081 0.075,0.007 0.155,0 0.231,-0.019 0.083,-0.017 0.152,-0.058 0.211,-0.114 0.057,-0.055 0.096,-0.124 0.114,-0.197 0.063,-0.208 -0.018,-0.386 -0.231,-0.525 0.077,-0.026 0.207,-0.125 0.395,-0.289 0.149,-0.136 0.249,-0.209 0.302,-0.232 0.051,-0.02 0.102,-0.025 0.157,-0.005 l 0.037,-0.144 -0.544,-0.158 z m 0.848,0.254 -0.031,0.112 0.487,1.77 -0.279,-0.091 c -0.178,-0.062 -0.288,-0.115 -0.334,-0.168 -0.051,-0.055 -0.07,-0.158 -0.067,-0.301 l -0.139,-0.051 -0.122,0.472 1.447,0.469 0.033,-0.115 -0.491,-1.772 0.389,0.135 c 0.111,0.033 0.192,0.072 0.236,0.107 0.049,0.039 0.079,0.094 0.104,0.159 0.023,0.067 0.034,0.151 0.034,0.253 l 0.143,0.044 0.14,-0.52 -1.55,-0.503 z m 2.711,0.928 -0.056,0.14 c 0.078,0.031 0.12,0.053 0.136,0.072 0.009,0.024 0.015,0.051 0.003,0.072 -0.006,0.019 -0.025,0.038 -0.05,0.066 l -0.027,0.034 -0.098,0.106 -0.518,-0.191 -0.004,-0.102 c 0,-0.066 0.005,-0.114 0.011,-0.134 0.017,-0.048 0.042,-0.067 0.075,-0.077 0.034,0 0.08,0.007 0.146,0.029 l 0.05,-0.139 -0.559,-0.21 -0.051,0.136 c 0.105,0.044 0.16,0.171 0.165,0.377 l 0.024,1.503 0.149,0.058 1.023,-1.107 c 0.098,-0.113 0.177,-0.175 0.228,-0.187 0.055,-0.004 0.095,-0.004 0.14,0.012 l 0.051,-0.139 -0.838,-0.319 z"
             id="path216"
             style="fill:#ffffff;fill-opacity:1;fill-rule:nonzero;stroke:none" /></g><g
           transform="translate(231.7584,726.7803)"
           id="g218"><path
             d="M 0,0 C -0.416,0.215 -0.774,0.442 -1.008,0.603 -1.23,0.46 -1.603,0.23 -1.955,0 L 0,0 z"
             id="path220"
             style="fill:#ffffff;fill-opacity:1;fill-rule:nonzero;stroke:none" /></g><g
           transform="translate(236.3429,727.2056)"
           id="g222"><path
             d="m 0,0 c -0.172,-0.074 -0.523,-0.221 -0.804,-0.375 -0.009,-0.002 -0.055,-0.024 -0.116,-0.05 l 8.164,0 C 7.183,-0.399 7.137,-0.377 7.13,-0.375 6.839,-0.221 6.487,-0.074 6.318,0 6.271,0.02 6.24,0.039 6.22,0.049 5.85,0.201 5.489,0.317 5.155,0.409 l -3.991,0 C 0.829,0.317 0.47,0.201 0.097,0.049 0.077,0.039 0.045,0.02 0,0"
             id="path224"
             style="fill:#ffffff;fill-opacity:1;fill-rule:nonzero;stroke:none" /></g><g
           transform="translate(248.6202,727.3735)"
           id="g226"><path
             d="m 0,0 c -0.012,-0.004 -0.018,-0.009 -0.024,-0.016 -0.165,-0.128 -0.451,-0.358 -0.841,-0.577 l 1.708,0 C 0.54,-0.384 0.236,-0.177 0.042,-0.026 0.032,-0.016 0.012,-0.009 0,0"
             id="path228"
             style="fill:#ffffff;fill-opacity:1;fill-rule:nonzero;stroke:none" /></g><g
           transform="translate(229.6691,711.0713)"
           id="g230"><path
             d="M 0,0 0,4.223 C -0.331,3.412 -0.829,1.668 0,0"
             id="path232"
             style="fill:#ffffff;fill-opacity:1;fill-rule:nonzero;stroke:none" /></g></g></g><g
       transform="matrix(1.0000042,0,0,1.0030132,61.499316,204.02419)"
       id="g234"><path
         d="m 0,0 -7.826,2.513 6.108,0 L 0,0 z"
         id="path236"
         style="fill:#ffffff;fill-opacity:1;fill-rule:nonzero;stroke:none" /></g><g
       transform="matrix(1.0000042,0,0,1.0030132,-178.00179,-516.29606)"
       id="g238"><g
         clip-path="url(#clipPath242)"
         id="g240"><g
           transform="translate(239.465,726.2246)"
           id="g246"><path
             d="m 0,0 -10.408,0 c -0.001,-0.004 -0.004,-0.012 -0.006,-0.019 -0.01,-0.103 0.056,-0.207 0.118,-0.273 0.053,-0.062 0.208,-0.253 0.416,-0.546 l 9.627,0 L 0,0 z"
             id="path248"
             style="fill:#ffffff;fill-opacity:1;fill-rule:nonzero;stroke:none" /></g><g
           transform="translate(239.0441,724.833)"
           id="g250"><path
             d="m 0,0 -9.102,0 c 0.148,-0.246 0.301,-0.524 0.448,-0.835 l 8.401,0 L 0,0 z"
             id="path252"
             style="fill:#ffffff;fill-opacity:1;fill-rule:nonzero;stroke:none" /></g><g
           transform="translate(238.6217,723.4453)"
           id="g254"><path
             d="m 0,0 -7.989,0 c 0.107,-0.263 0.204,-0.544 0.288,-0.839 l 7.449,0 L 0,0 z"
             id="path256"
             style="fill:#ffffff;fill-opacity:1;fill-rule:nonzero;stroke:none" /></g><g
           transform="translate(238.1993,722.0464)"
           id="g258"><path
             d="m 0,0 -7.144,0 c 0.055,-0.271 0.098,-0.548 0.123,-0.838 l 6.768,0 L 0,0 z"
             id="path260"
             style="fill:#ffffff;fill-opacity:1;fill-rule:nonzero;stroke:none" /></g><g
           transform="translate(233.6393,719.2671)"
           id="g262"><path
             d="m 0,0 -2.467,0 c -0.037,-0.249 -0.09,-0.529 -0.172,-0.839 l 3.804,0 L 0,0 z"
             id="path264"
             style="fill:#ffffff;fill-opacity:1;fill-rule:nonzero;stroke:none" /></g><g
           transform="translate(232.8663,719.8198)"
           id="g266"><path
             d="m 0,0 -1.172,0.84 -0.489,0 c 0,-0.026 0.003,-0.053 0.003,-0.076 C -1.644,0.658 -1.617,0.392 -1.639,0 L 0,0 z"
             id="path268"
             style="fill:#ffffff;fill-opacity:1;fill-rule:nonzero;stroke:none" /></g><g
           transform="translate(239.5377,726.2246)"
           id="g270"><path
             d="m 0,0 -0.038,0.12 0,-0.12 0,-0.838 0,-0.554 0,-0.835 0,-0.552 0,-0.839 0,-0.56 0,-0.838 0,-3.052 7.827,2.512 -6.109,0 -0.162,0.54 6.882,0 c 0.035,0.285 0.085,0.567 0.152,0.838 l -7.288,0 -0.169,0.56 7.614,0 c 0.093,0.29 0.196,0.573 0.309,0.839 l -8.178,0 -0.168,0.552 8.601,0 c 0.152,0.307 0.307,0.585 0.46,0.835 l -9.312,0 -0.168,0.554 9.838,0 c 0.275,0.402 0.491,0.663 0.553,0.733 0.046,0.051 0.059,0.086 0.063,0.105 L 0,0 z"
             id="path272"
             style="fill:#ffffff;fill-opacity:1;fill-rule:nonzero;stroke:none" /></g><g
           transform="translate(241.379,713.6929)"
           id="g274"><path
             d="m 0,0 0,-6.269 c 0.265,0.178 0.55,0.321 0.838,0.438 l 0,5.194 L 0,0 z"
             id="path276"
             style="fill:#ffffff;fill-opacity:1;fill-rule:nonzero;stroke:none" /></g><g
           transform="translate(239.9645,714.7705)"
           id="g278"><path
             d="m 0,0 0,-9.063 c 0.125,0.206 0.246,0.406 0.313,0.51 l 0.041,0.072 c 0.132,0.246 0.298,0.465 0.482,0.656 l 0,7.19 L 0,0 z"
             id="path280"
             style="fill:#ffffff;fill-opacity:1;fill-rule:nonzero;stroke:none" /></g><g
           transform="translate(238.568,714.4116)"
           id="g282"><path
             d="m 0,0 0,-7.289 c 0.264,-0.232 0.498,-0.507 0.677,-0.837 l 0.041,-0.068 c 0.03,-0.048 0.072,-0.115 0.118,-0.191 l 0,9.022 L 0,0 z"
             id="path284"
             style="fill:#ffffff;fill-opacity:1;fill-rule:nonzero;stroke:none" /></g><g
           transform="translate(237.1779,713.3569)"
           id="g286"><path
             d="m 0,0 0,-5.432 c 0.285,-0.103 0.567,-0.235 0.838,-0.397 l 0,6.461 L 0,0 z"
             id="path288"
             style="fill:#ffffff;fill-opacity:1;fill-rule:nonzero;stroke:none" /></g><g
           transform="translate(242.7711,708.0518)"
           id="g290"><path
             d="m 0,0 c 0.293,0.087 0.574,0.149 0.837,0.191 l 0,3.76 L 0,4.588 0,0 z"
             id="path292"
             style="fill:#ffffff;fill-opacity:1;fill-rule:nonzero;stroke:none" /></g><g
           transform="translate(235.7892,708.272)"
           id="g294"><path
             d="m 0,0 c 0.253,-0.038 0.54,-0.093 0.834,-0.172 l 0,4.836 L 0,4.028 0,0 z"
             id="path296"
             style="fill:#ffffff;fill-opacity:1;fill-rule:nonzero;stroke:none" /></g><g
           transform="translate(239.5001,718.1602)"
           id="g298"><path
             d="m 0,0 -2.859,-1.046 -1.065,0.764 -4.737,0 C -8.746,-0.545 -8.853,-0.827 -8.979,-1.12 l 10e-4,0 -10e-4,0 c -0.089,-0.211 -0.189,-0.422 -0.298,-0.642 l 0,-6.192 c 0.174,-0.209 0.446,-0.487 0.834,-0.765 l 0,7.599 0.553,0 0,-7.943 c 0.246,-0.135 0.526,-0.26 0.838,-0.37 l 0,8.313 0.552,0 0,-8.481 c 0.258,-0.062 0.541,-0.112 0.838,-0.146 l 0,8.627 0.559,0 0,-8.673 c 0.117,-0.004 0.233,-0.013 0.356,-0.013 0.068,0 0.24,-0.003 0.482,-0.02 l 0,3.544 L -4.753,-6.65 0,0 z m -4.265,-1.12 0.554,0 0,-2.452 -0.554,-1.637 0,4.089 z"
             id="path300"
             style="fill:#ffffff;fill-opacity:1;fill-rule:nonzero;stroke:none" /></g><g
           transform="translate(248.5289,717.0405)"
           id="g302"><path
             d="m 0,0 -0.001,0 c -0.126,0.297 -0.236,0.576 -0.321,0.838 l -4.782,0 -1.066,-0.764 -2.088,0.764 -0.771,0.282 4.658,-6.577 0,-3.264 c 0.328,0.029 0.568,0.035 0.65,0.035 0.067,0 0.124,0.008 0.19,0.008 l 0,8.678 0.559,0 0,-8.648 c 0.296,0.028 0.578,0.066 0.837,0.124 l 0,8.524 0.552,0 0,-8.375 c 0.312,0.095 0.586,0.212 0.838,0.334 l 0,8.041 0.554,0 0,-7.724 c 0.321,0.215 0.585,0.435 0.777,0.632 0.019,0.03 0.039,0.062 0.059,0.092 l 0,5.721 C 0.382,-0.822 0.172,-0.395 0,0 m -4.371,-5.245 -0.549,1.63 0,3.615 0.549,0 0,-5.245 z"
             id="path304"
             style="fill:#ffffff;fill-opacity:1;fill-rule:nonzero;stroke:none" /></g><g
           transform="translate(244.1945,718.4282)"
           id="g306"><path
             d="M 0,0 3.852,0 C 3.772,0.317 3.723,0.594 3.694,0.839 l -2.527,0 L 0,0 z"
             id="path308"
             style="fill:#ffffff;fill-opacity:1;fill-rule:nonzero;stroke:none" /></g><g
           transform="translate(247.3053,720.6602)"
           id="g310"><path
             d="m 0,0 -1.172,-0.84 1.717,0 c -0.004,0.28 0.018,0.476 0.031,0.581 0,0.087 0.007,0.173 0.011,0.259 L 0,0 z"
             id="path312"
             style="fill:#ffffff;fill-opacity:1;fill-rule:nonzero;stroke:none" /></g><g
           transform="translate(251.8815,737.1475)"
           id="g314"><path
             d="M 0,0 C 0.247,-0.01 0.469,0.004 0.678,0.033 3.283,0.71 3.384,3.917 2.954,4.125 2.938,4.095 2.925,4.106 2.915,4.151 2.853,3.956 2.779,3.763 2.697,3.595 2.536,3.266 2.329,3.06 2.268,3.083 2.245,3.098 2.242,3.144 2.258,3.16 2.828,4.161 2.808,4.944 2.514,5.916 2.314,6.438 2.005,6.962 1.506,7.312 0.194,8.231 -2.444,8.39 -3.866,7.28 -4.365,7.779 -4.992,8.15 -5.729,8.413 -5.909,7.611 -6.793,6.537 -7.573,5.988 -7.729,5.884 -8.17,5.586 -8.354,5.586 c 0,0 -0.179,0.031 -0.02,0.174 1.396,0.866 2.082,1.923 2.098,3.242 l 0,0.024 c -0.041,0.663 -0.211,1.899 -1.014,2.777 -1.272,1.385 -4.692,1.571 -6.261,0.263 -0.405,-0.43 -0.674,-0.959 -0.81,-1.613 0.17,0.479 0.531,0.962 1.265,1.192 0.693,0.216 2.019,0.068 2.219,-0.735 -1.175,1.207 -3.311,0.314 -3.607,-1.73 0,0 0,0.008 -10e-4,0.019 -0.029,-0.135 -0.103,-0.144 -0.103,-0.144 l -0.006,0 c -0.059,0.008 -0.137,0.015 -0.105,0.924 0.026,0.569 0.199,1.278 0.458,1.873 -2.629,0.473 -5.78,-0.81 -5.721,-4.719 0.039,-0.549 0.233,-1.061 0.736,-1.645 0.098,-0.11 0.021,-0.158 0.021,-0.158 -0.075,-0.039 -0.404,0.181 -0.597,0.444 -0.261,0.354 -0.49,0.829 -0.603,1.289 -1.651,0.59 -2.67,0.604 -3.606,0.517 -0.963,-0.091 -2.24,-0.948 -2.685,-1.537 -0.201,-0.259 -0.431,-0.627 -0.594,-0.949 -0.319,-0.622 -0.558,-1.427 -0.471,-2.332 0.146,-1.526 0.9,-2.815 2.011,-3.423 1.527,-0.843 3.468,-0.728 4.163,-0.618 0.376,0.084 0.772,0.209 1.185,0.493 0.052,0.037 0.102,0.072 0.153,0.114 0.02,0.015 0.043,0.034 0.068,0.051 0.611,0.532 0.981,1.349 0.931,2.419 -0.001,0.021 0.021,0.06 0.05,0.06 0.065,0 0.158,-0.281 0.15,-0.647 -0.009,-0.419 -0.101,-0.905 -0.269,-1.316 0,-0.062 0.003,-0.132 0.007,-0.206 0.025,-0.153 0.083,-0.313 0.173,-0.415 0.29,-0.323 1.011,-0.428 1.575,-0.201 0.024,0.011 0.069,0.007 0.069,-0.016 0.002,-0.077 -0.38,-0.474 -1.076,-0.474 -0.135,0 -0.283,0.011 -0.424,0.043 0.385,-0.651 1.473,-1.111 2.591,-1.045 0.018,0.007 0.061,-0.019 0.061,-0.043 0,-0.064 -0.278,-0.162 -0.645,-0.162 -0.513,0 -1.132,0.124 -1.593,0.363 0.534,-0.645 1.447,-1.225 3.018,-1.446 0.045,-0.179 -1.182,-0.036 -1.534,0.082 0.725,-2.834 2.243,-2.509 2.27,-2.706 -0.448,-0.146 -0.757,-0.694 -0.444,-1.308 1.613,0.576 2.814,0.624 3.173,0.624 0.362,0 1.601,-0.051 3.252,-0.654 0.179,0.242 0.182,0.496 0.095,0.738 -0.247,0.709 -2.427,1.256 -4.474,0.658 -0.086,-0.033 -0.179,-0.08 -0.268,-0.144 -0.006,-0.002 -0.019,-0.002 -0.026,0.006 -0.005,0.008 0.007,0.028 0.028,0.056 0,-0.005 -0.002,-0.005 -0.002,-0.005 0.002,0.005 0.003,0.007 0.006,0.007 0.029,0.037 0.268,0.171 0.268,0.171 0.894,0.474 2.753,0.651 3.773,0.143 0.006,0 0.004,0.005 0.013,0 0.871,-0.38 1.649,0.685 1.373,1.24 0.643,-0.043 1.13,0.359 1.17,1.005 -0.134,-0.073 -0.238,-0.125 -0.337,-0.167 l 0.002,-0.004 c -0.231,-0.115 -0.45,-0.125 -0.473,-0.093 -0.006,0.009 -0.003,0.02 0,0.03 l -0.006,0 c 0.006,0 0.01,0.005 0.013,0.005 0.005,0.005 0.01,0.013 0.016,0.013 0.098,0.045 0.188,0.088 0.273,0.138 1.198,0.688 1.773,2.038 1.657,2.455 -0.103,-0.241 -0.476,-0.446 -0.835,-0.449 -0.19,-0.016 -0.302,0.022 -0.307,0.053 -0.007,0.022 0.017,0.038 0.036,0.038 0.148,0.014 0.272,0.08 0.404,0.167 0.42,0.3 0.804,0.856 0.989,1.31 -0.745,0.709 -1.005,1.545 -1.432,2.649 -0.162,0.41 -0.512,0.838 -1.024,0.878 -0.027,0 -0.172,0.003 -0.215,0 -0.069,-0.007 -0.129,-0.019 -0.186,-0.036 -0.013,-0.004 -0.036,0 -0.039,0.01 0.57,0.476 1.195,-0.039 1.565,-0.248 0.061,1.056 0.437,1.32 0.471,1.309 0.014,-0.008 0.017,-0.044 0.008,-0.051 -0.729,-2.154 0.704,-4.198 1.833,-4.859 1.502,-0.811 4.231,-0.929 6.043,0.611 l -0.001,0 C 1.238,-0.13 0.893,-0.187 0.587,-0.192 0.22,-0.204 -0.06,-0.116 -0.064,-0.047 -0.064,-0.02 -0.021,0.004 0,0 m -24.439,0.125 c 0.966,0.246 1.809,0.758 1.561,1.666 -0.068,0.253 -0.292,0.466 -0.655,0.498 -0.54,0.05 -0.9,-0.343 -1.172,-0.748 0.062,0.843 0.59,1.395 1.448,1.298 0.451,-0.049 1.058,-0.466 1.15,-0.945 0.265,-1.338 -0.956,-1.887 -2.332,-1.769 m 3.419,0.952 c 0.405,1.111 0.61,2.792 -1.143,3.227 -1.369,0.343 -2.597,-0.679 -3.229,-1.25 0.406,1.256 1.776,2.194 3.589,1.797 -0.375,1.05 -1.729,1.489 -3.294,0.624 -0.381,-0.208 -0.654,-0.452 -0.915,-0.677 0.28,0.795 0.931,1.374 1.683,1.652 1.182,0.438 2.4,-0.029 3.021,-0.639 1.937,-1.906 0.874,-4.59 0.288,-4.734 m 8.971,-5.759 c -0.801,-0.03 -0.895,0.544 -1.046,1.148 0.353,-0.282 0.846,-0.661 0.807,-0.019 -0.295,0.258 -2.091,0.725 -1.62,1.508 0.297,0.429 1.259,-1.291 1.533,-0.715 0.167,1.156 -3.44,1.514 -3.334,2.511 0.017,0.536 2.841,-1.374 3.248,-1.332 -0.038,0.613 -4.204,2.309 -5.475,4.583 -0.091,0.162 -0.142,0.307 -0.111,0.326 0.011,0.01 0.035,0 0.039,-0.015 0.783,-1.235 2.817,-2.896 5.37,-3.591 0.868,-0.244 1.291,-3.023 0.589,-4.404 m 0.945,-0.703 c -0.272,0.074 -0.119,0.557 -0.119,0.769 0,1.192 -0.034,2.341 -0.325,3.337 -0.142,0.493 -0.544,2.071 -1.595,4.076 0.401,-0.467 1.991,-2.942 2.223,-4.818 0.128,-1.046 0.325,-2.446 -0.184,-3.364 m 1.299,7.118 c 0.758,-0.314 -0.383,-1.849 -0.474,-2.135 0.175,0.081 0.789,0.742 1.037,0.541 0.392,-0.326 -0.807,-1.9 -1.123,-2.01 -1.696,2.211 0.475,2.867 0.56,3.604 m -0.207,-6.471 c -0.23,0.103 -0.24,0.56 -0.205,0.768 0.087,0.56 0.736,0.819 1.031,1.123 0.073,0.007 0.029,-0.893 -0.826,-1.891 m -0.205,1.569 c -0.326,0.574 0.541,1.291 0.738,1.861 1.051,0.164 -0.278,-1.697 -0.738,-1.861 m 0.95,15.121 c -0.052,0.072 1.528,-0.304 1.81,-1.704 0.054,-0.877 -0.43,-1.138 -0.521,-1.097 -0.031,0.012 -0.04,0.071 -0.028,0.099 0.245,0.588 0.147,1.51 -0.306,2.046 -0.327,0.388 -0.908,0.598 -0.955,0.656 m 8.898,-8.639 c -0.013,-0.004 -0.026,-0.004 -0.035,0 -0.013,0.015 -0.019,0.025 -0.019,0.037 0.003,0.131 0.019,0.27 0.035,0.401 0.036,0.322 0.036,0.645 -0.048,1.01 -0.397,1.706 -1.802,2.309 -2.816,1.298 0,0 1.096,2.043 3.556,1.296 C 0.905,7.163 1.373,6.67 1.711,5.919 1.999,5.265 1.877,4.586 1.681,4.205 1.674,4.191 1.662,4.191 1.643,4.194 1.633,4.205 1.62,4.22 1.627,4.233 1.698,4.615 1.591,5.267 1.361,5.784 1.235,6.069 0.968,6.548 0.557,6.661 0.809,6.296 0.982,6 1.094,5.748 1.247,5.399 1.252,5.195 1.257,5.032 1.277,4.267 0.905,3.404 0.551,3.083 c -0.009,0 -0.026,0 -0.042,0.01 C 0.496,3.102 0.496,3.119 0.499,3.131 0.893,4.056 0.924,4.86 0.599,5.593 0.567,5.667 0.526,5.741 0.486,5.82 0.198,6.337 -0.298,6.936 -1.038,6.91 -0.68,6.661 -0.382,6.289 -0.181,5.832 0.246,4.86 0.162,3.759 -0.369,3.313"
             id="path316"
             style="fill:#ffffff;fill-opacity:1;fill-rule:nonzero;stroke:none" /></g><g
           transform="translate(275.3258,719.0127)"
           id="g318"><path
             d="m 0,0 c -0.24,4.071 -0.564,7.714 -1.549,11.066 -0.605,2.06 -1.77,6.276 -4.494,6.853 -1.279,0.271 -2.248,-0.92 -2.225,-1.992 0.019,-0.92 0.661,-1.364 0.38,-2.277 -0.344,-0.596 -0.684,-1.246 -0.85,-1.908 -0.167,-0.661 0.424,-0.929 0.236,-1.634 -0.824,0.121 -1.262,-0.564 -2.481,-0.315 -1.119,-0.46 -2.243,-0.256 -2.25,-0.226 -0.008,0.017 0.03,0.035 0.055,0.029 1.22,0.033 2.323,0.436 2.553,0.972 0.249,0.819 0.1,2.043 -0.511,2.496 -0.697,-0.149 -1.047,-0.745 -3.48,-0.602 -2.004,0.118 -2.502,-0.256 -2.781,-1.473 -0.119,0.2 -0.127,0.358 -0.105,0.576 0.077,0.667 0.743,1.077 1.555,1.166 0.169,0.29 0.194,0.513 0.194,0.832 -0.367,0.028 -0.541,0.036 -0.999,-0.035 -0.956,-0.149 -2.271,-0.69 -2.601,-1.643 -0.041,-0.112 -0.065,-0.311 -0.068,-0.498 0.011,-0.153 0.035,-0.293 0.068,-0.425 0.038,-0.098 0.081,-0.201 0.104,-0.305 0.307,-0.658 1.061,-1.029 2.666,-1.101 0.028,0.004 0.068,-0.023 0.065,-0.056 -0.01,-0.066 -0.326,-0.128 -0.734,-0.083 0,0 -1.492,-0.012 -2.159,0.774 -0.047,-0.058 -0.094,-0.11 -0.122,-0.138 -0.405,-0.418 -1.145,-0.816 -1.805,-0.855 -0.725,-0.033 -1.534,0.437 -1.817,0.825 -0.967,1.299 0.283,3.547 0.263,4.384 -0.056,2.234 -3.1,1.228 -4.212,0.643 -1.329,-0.696 -2.387,-1.821 -3.278,-2.925 -0.476,-0.589 -1.004,-1.316 -1.285,-1.944 0.391,-0.184 1.551,-0.69 2.428,-0.705 l 0.048,-0.004 c 0.049,-0.005 0.158,-0.012 0.31,-0.012 0.458,0 1.325,0.074 1.964,0.614 0.058,0.049 0.324,0.26 0.702,0.26 0.282,0 0.543,-0.11 0.764,-0.321 0.159,-0.129 2.077,-1.661 2.707,-2.088 0.088,-0.055 0.267,-0.223 0.305,-0.486 0.024,-0.155 -0.006,-0.402 -0.239,-0.67 -0.143,-0.165 -1.107,-1.296 -1.736,-2.83 l -0.002,-0.002 c -0.092,-0.226 -0.176,-0.455 -0.25,-0.695 -0.232,-0.819 -0.397,-2.119 0.744,-2.523 0,0 1.257,-0.325 1.16,1.756 0,0 0.203,-1.332 1.182,-1.29 0.415,0.02 0.79,0.431 0.719,1.332 0.002,-0.003 0.003,-0.006 0.005,-0.007 -0.093,0.868 -0.08,1.847 0.088,2.937 0.007,0.04 0.013,0.075 0.021,0.113 0.012,-0.019 0.044,-0.11 0.095,-0.534 0.061,-0.544 -0.319,-5.375 3.644,-8.651 0,0 -1.672,0.819 -2.83,2.875 -0.668,-0.399 -1.585,-1.251 -1.166,-3.067 0.218,-0.618 0.644,-1.201 0.98,-1.383 0.017,-0.011 0.043,-0.053 0.043,-0.084 0.004,-0.084 -0.214,-0.241 -0.576,0.122 l -0.001,0.003 c -0.052,0.055 -0.108,0.117 -0.165,0.194 -0.136,0.205 -0.239,0.409 -0.321,0.603 -0.455,0.395 -0.875,0.823 -1.291,1.25 l -10e-4,0.01 c -0.32,0.645 -0.143,2.581 -2.032,2.585 0,0 -0.07,0.005 -0.177,0 l -0.003,0 c -0.089,-0.004 -0.2,-0.014 -0.322,-0.043 -0.021,-0.003 -0.047,-0.004 -0.069,-0.007 -0.494,1.688 -0.36,2.764 -0.333,2.931 0.388,2.442 2.117,4.469 2.312,4.695 0.074,0.076 0.15,0.201 0.138,0.321 -0.016,0.098 -0.087,0.161 -0.105,0.169 l -0.007,0.007 c -0.652,0.436 -2.533,1.941 -2.746,2.112 l -0.017,0.02 c -0.143,0.128 -0.295,0.2 -0.462,0.2 -0.236,0 -0.408,-0.153 -0.408,-0.153 -0.759,-0.632 -1.737,-0.728 -2.258,-0.728 -0.177,0 -0.308,0.015 -0.363,0.025 l -0.031,0 c -1.089,0.029 -2.456,0.68 -2.722,0.813 l -0.002,0 c -1.873,0.781 -3.313,0.815 -3.585,0.815 -0.267,0 -1.71,-0.034 -3.583,-0.815 -0.267,-0.133 -1.637,-0.784 -2.723,-0.813 l -0.02,0 c -0.05,-0.006 -0.183,-0.025 -0.374,-0.025 -0.516,0 -1.501,0.096 -2.25,0.721 l -0.013,0.013 c 0,0 -0.172,0.147 -0.407,0.147 -0.163,0 -0.317,-0.072 -0.455,-0.2 l -0.017,-0.02 c -0.213,-0.171 -2.099,-1.676 -2.746,-2.112 l -0.012,-0.007 c -0.016,-0.008 -0.089,-0.071 -0.101,-0.169 -0.016,-0.12 0.065,-0.245 0.132,-0.321 0.2,-0.226 1.927,-2.253 2.314,-4.695 0.016,-0.092 0.063,-0.463 0.021,-1.061 -0.161,0.52 -0.311,0.967 -0.431,1.298 -0.054,0.268 -0.145,0.502 -0.275,0.708 l -0.002,0.005 c -0.26,0.417 -0.655,0.718 -1.074,0.959 -0.341,0.19 -0.715,0.242 -1.035,0.472 -0.501,0.346 -1.032,0.709 -1.359,1.356 -0.014,1.254 -0.666,2.189 -0.666,2.189 0.18,0.088 0.946,-0.465 1.006,-1.82 0.893,0.939 1.346,2.315 1.67,3.825 0.68,0.937 2.584,0.569 3.304,0.441 0.19,-0.028 0.507,-0.095 0.648,-0.205 0.205,-0.146 0.249,-0.468 0.534,-0.589 0.3,-0.126 0.641,-0.032 1.006,0 0.117,-0.134 0.188,-0.313 0.269,-0.482 0.119,0.003 0.209,0.007 0.245,0.012 l 0.011,0.004 0.037,0 c 1.025,0.015 2.436,0.7 2.56,0.764 l 0.029,0.02 c 0.054,0.019 0.102,0.038 0.156,0.059 -0.404,0.506 -1.036,0.652 -1.596,0.745 -0.71,0.115 -1.096,0.711 -1.772,0.854 -0.175,0.042 -0.774,0.135 -0.971,0.061 -1.503,-0.194 -2.563,0.37 -3.961,0.472 -1.335,0.095 -1.379,-0.815 -1.859,-1.566 -0.185,-0.283 -0.4,-0.61 -0.621,-0.824 -0.367,-0.356 -0.794,-0.369 -1.238,-0.711 -0.022,0.015 -0.041,0.026 -0.062,0.041 -0.088,0.464 -0.281,1.206 -0.624,1.715 -0.006,0.008 -0.01,0.015 -0.016,0.022 -0.031,0.058 -0.062,0.113 -0.097,0.168 -0.729,1.14 -1.552,2.014 -3.161,2.39 -0.308,0.125 -0.356,0.144 -0.562,0.301 -0.26,0.211 -0.075,0.449 0,0.474 0.464,0.264 1.251,0.173 1.774,0.413 1.279,0.598 0.832,1.68 0.326,1.771 -0.648,0.116 -1.811,0.427 -2.041,0.563 -0.31,0.193 -0.499,0.734 -1.006,0.914 -0.387,0.123 -0.713,0.108 -1.059,0.061 -0.311,-0.044 -0.512,-0.274 -0.742,-0.235 0.296,0.411 0.798,0.619 1.45,0.675 -0.563,0.156 -0.372,1.067 -0.89,1.274 -0.222,0.038 -0.55,-0.062 -0.917,-0.247 -0.038,0.285 -0.2,1.252 -0.737,1.568 -0.429,0.249 -0.586,-0.139 -0.563,-0.385 0.019,-0.223 0.658,-0.493 0.77,-1.487 -0.112,-0.073 -0.221,-0.149 -0.334,-0.23 -0.084,0.412 -0.277,1.042 -0.69,1.286 -0.43,0.246 -0.586,-0.131 -0.563,-0.386 0.02,-0.21 0.578,-0.454 0.744,-1.295 -0.148,-0.122 -0.29,-0.246 -0.427,-0.37 -0.868,0.235 -1.059,0.844 -1.269,0.885 -0.249,0.048 -0.647,-0.072 -0.438,-0.524 0.201,-0.451 0.844,-0.707 1.241,-0.826 -0.096,-0.101 -0.184,-0.201 -0.266,-0.303 -1.004,0.199 -1.21,0.877 -1.434,0.922 -0.243,0.051 -0.644,-0.07 -0.438,-0.522 0.267,-0.582 1.259,-0.839 1.51,-0.897 -0.165,-0.278 -0.248,-0.522 -0.207,-0.705 -0.781,0.092 -2.155,-0.325 -1.896,-1.239 0.26,-0.187 1.177,0.566 2.019,0.146 0.557,-0.864 1.45,-0.903 1.655,-1.061 0.307,-0.247 0.364,-0.69 0.501,-1.099 0.249,-0.74 0.772,-1.343 1.209,-2.004 0.476,-0.73 0.975,-1.495 1.476,-2.127 0.062,-0.172 0.119,-0.359 0.088,-0.619 -0.57,-0.913 -2.281,-1.973 -2.982,-2.629 -0.707,-0.664 -7.403,-5.758 -8.24,-7.976 -0.187,-0.502 -0.294,-1.14 -0.265,-1.802 -0.406,-0.219 -1.128,-0.087 -1.33,0.146 -0.443,0.524 0.459,1.023 0.238,1.714 -0.103,0.271 -0.452,0.366 -0.741,0.271 -0.493,-0.178 -0.596,-1.174 -0.353,-1.774 0.072,-0.171 0.333,-0.388 0.139,-0.518 -0.246,-0.1 -0.407,0.153 -0.407,0.511 -0.134,-0.103 -0.267,-0.336 -0.204,-0.582 0.131,-0.489 0.724,-0.499 0.919,-0.625 -0.025,-0.216 -0.357,-0.32 -0.579,-0.115 -0.369,-0.541 0.044,-0.75 0.132,-0.769 0.402,-0.072 0.838,0.294 1.094,0.326 0.112,-0.275 -0.083,-0.365 -0.502,-0.476 0.668,-0.812 1.267,0.581 2.009,0.414 0.236,-0.048 2.335,-2.015 1.978,-3.513 -0.021,-0.081 -0.103,-0.3 -0.146,-0.356 -0.469,-0.576 -1.24,-1.02 -1.774,-1.567 -1.1,-0.699 1.047,-5.104 0.877,-7.36 -0.138,-0.881 0.755,-0.717 1.264,-2.154 -0.539,-0.01 -1.072,-0.139 -1.341,-0.547 0,0 -0.035,-0.042 -0.082,-0.117 l 0.01,-0.007 c -0.093,-0.158 -0.148,-0.345 -0.148,-0.545 0,-0.608 0.494,-1.097 1.104,-1.097 0.606,0 1.101,0.489 1.101,1.097 0,0.057 -0.007,0.114 -0.014,0.161 0.244,0 0.549,-0.042 0.886,-0.191 l 0.972,-0.526 c 0,0 -3.414,-2.874 -8.982,-1.202 0,0 -2.529,0.807 -1.82,3.051 0,0 0.127,0.378 0.466,0.593 0.067,-0.307 0.254,-0.57 0.504,-0.752 0.206,-0.144 0.457,-0.231 0.727,-0.231 0.699,0 1.264,0.569 1.264,1.265 0,0.346 -0.134,0.65 -0.354,0.88 -0.052,0.055 -0.107,0.095 -0.172,0.143 -0.005,0.007 -0.012,0.012 -0.021,0.017 -0.004,0.005 -0.011,0.009 -0.018,0.016 -0.375,0.255 -0.948,0.42 -1.822,0.19 0,0 -2.433,-0.705 -1.546,-3.338 0,0 -1.644,0.373 -2.266,-0.379 0,0 -0.214,-0.236 -0.194,-0.625 l 0,-0.011 0,-0.012 c 0.013,-0.156 0.059,-0.335 0.168,-0.537 0.176,-0.246 0.463,-0.409 0.785,-0.409 0.3,0 0.568,0.134 0.742,0.351 0.003,0.008 0.008,0.01 0.009,0.01 0.069,0.089 0.227,0.175 0.565,-0.106 0,0 2.282,-2.525 5.631,-2.204 0,0 0.093,-1.729 1.265,-2.043 0,0 0.113,-0.026 0.171,-0.026 0.321,0 0.582,0.263 0.582,0.58 0,0.326 -0.261,0.585 -0.582,0.585 -0.024,0 -0.046,0 -0.068,-0.006 -0.016,0.062 -0.145,0.57 -0.075,0.936 0,0 3.67,0.482 6.141,2.495 0,0 1.693,-0.493 2.811,-0.539 0,0 0.161,-0.385 -0.591,-0.464 0,0 -0.964,0.017 -0.942,-0.29 0,0 -0.064,-0.347 0.703,-0.335 0,0 -0.097,-0.349 0.512,-0.701 0,0 0.393,-0.207 0.188,-0.463 0,0 -0.732,-0.405 -0.516,-0.869 0,0 0.198,-0.589 1.221,-0.44 0,0 0.348,0.015 0.063,-0.288 0,0 -0.509,-0.541 0.353,-0.987 0,0 0.676,-0.366 1.116,0.332 0,0 0.095,0.275 0.509,0.066 0,0 2.178,-0.991 3.307,0.637 0,0 0.071,0.249 0.397,-0.174 0,0 1.124,-1.358 4.186,-1.458 0.196,-0.369 0.581,-0.609 1.018,-0.609 0.563,0 1.031,0.401 1.134,0.939 0.369,0.004 1.714,0.113 3.157,1.068 0,0 0.516,0.321 1.082,0.591 0.026,-0.862 0.732,-1.558 1.602,-1.558 0.885,0 1.604,0.721 1.604,1.603 0,0.789 -0.57,1.444 -1.322,1.576 -0.035,0.014 -1.061,0.305 -2.552,-0.601 0,0 -1.195,-0.836 -1.485,-0.836 0,0 0.284,1.351 0.502,2.869 -0.228,0.025 -0.454,0.052 -0.678,0.081 -0.175,-1.419 -0.498,-3.05 -1.069,-3.136 l -0.815,-0.173 c -0.034,0.106 -0.088,0.201 -0.155,0.288 -0.131,0.194 -0.378,0.396 -0.863,0.349 0,0 -0.035,-0.007 -0.086,-0.023 -0.369,-0.099 -0.647,-0.413 -0.683,-0.796 -0.172,-0.035 -1.561,-0.264 -2.28,0.288 0,0 1.343,0.467 1.5,0.943 0,0 0.398,0.781 -0.924,1.513 0,0 -0.991,0.579 -1.263,-0.043 0,0 -0.094,-0.275 0.351,-0.658 0,0 0.481,-0.508 -0.431,-0.429 0,0 -0.622,0.064 -0.83,0.307 0,0 0.165,1.705 0.56,2.868 -0.352,0.091 -0.699,0.182 -1.045,0.278 -0.141,-0.378 -0.27,-0.779 -0.384,-1.211 0,0 -0.054,-0.997 -0.421,-1.25 0,0 -1.292,1.06 -0.741,2.916 -0.405,0.126 -0.806,0.258 -1.203,0.395 -0.043,-0.888 0.174,-2.328 1.337,-4.382 0,0 -1.055,-1.405 -2.154,-0.673 0,0 -1.542,0.997 -0.558,1.882 0,0 0.67,0.56 0.959,-0.138 -0.344,-0.019 -0.619,-0.3 -0.619,-0.65 0,-0.353 0.289,-0.648 0.646,-0.648 0.345,0 0.625,0.275 0.641,0.613 0.033,0.264 0.048,0.929 -0.528,1.417 0,0 -0.557,0.588 -1.465,0.397 0,0 0.855,1.13 0.94,2.074 0,0 0.004,0.157 0.066,0.364 -0.25,0.091 -0.499,0.187 -0.746,0.282 -0.058,-0.929 -0.337,-2.636 -1.609,-2.167 0,0 0.821,1.37 1.35,2.269 -0.514,0.201 -1.023,0.406 -1.522,0.626 -0.035,0.014 -0.083,0.033 -0.139,0.058 0.079,-0.386 0.201,-1.351 -0.322,-1.919 0,0 -0.639,-0.595 -1.74,0.267 0,0 1.465,1.231 1.919,1.71 -0.313,0.119 -0.784,0.265 -1.208,0.265 l -0.403,0 c -0.025,-0.019 -0.056,-0.041 -0.082,-0.06 0,0 -0.958,-0.704 -1.613,-0.979 0,0 -0.192,-0.125 -0.383,0.081 0,0 -1.195,1.392 -0.269,2.872 0,0 0.542,1.318 1.707,1.028 0,0 0.332,0.01 0.526,-0.453 0,0 -1.116,-0.045 -0.989,-0.826 0,0 0.014,-0.819 1.021,-0.765 0,0 1.401,0.142 1.068,1.834 0,0 -0.237,1.021 -1.037,1.021 0,0 0.448,0.56 0.127,0.782 0,0 -0.336,0.319 -1.084,-0.208 0,0 -0.192,-0.369 -1.102,-0.172 0,0 -0.606,0.25 -0.942,-0.214 0,0 -0.156,-0.063 -0.156,-0.718 0,0 0.069,-0.255 -0.337,-0.936 0,0 -0.227,-0.456 -0.268,-1.198 -0.279,0.216 -0.596,0.379 -0.932,0.431 -0.458,0.482 -0.496,2.716 -0.973,3.807 -0.109,0.254 0.217,1.388 0.224,2.601 3.378,0.713 4.65,3.297 4.995,4.438 0.526,1.863 -0.173,3.759 -0.257,4.267 -0.004,0.062 0.056,0.062 0.086,0 0.148,-0.281 0.27,-0.574 0.371,-0.877 1.625,-0.121 2.742,0.13 3.526,0.423 0.041,0.018 0.084,0.033 0.123,0.049 0.058,0.022 0.111,0.046 0.163,0.065 0.139,0.062 0.273,0.125 0.403,0.187 0.049,0.024 0.095,0.047 0.137,0.072 2.358,1.214 3.427,3.165 4.075,4.275 -0.334,0.072 -1.348,0.394 -1.684,0.913 0.87,-0.072 1.524,-0.436 2.393,-0.443 1.279,-0.01 2.136,0.704 3.542,0.537 10e-4,-0.077 0.19,-0.671 1.095,-1.04 0.025,-0.802 0.078,-1.489 0.327,-2.125 0.067,-0.193 0.119,-0.264 0.119,-0.264 0,0 -1.059,-0.814 -0.781,-1.502 0.073,-0.183 0.149,-0.37 0.213,-0.529 -0.05,0 -0.103,0.006 -0.15,0.025 -0.155,0.07 -0.343,-0.206 -0.578,-0.575 -0.121,-0.192 -0.68,-1.345 -0.259,-1.444 0.09,-0.02 0.174,-0.026 0.263,-0.028 -0.224,-1.196 -0.207,-2.757 0.778,-4.203 l 0.01,-0.019 c 0.061,-0.1 1.589,-2.596 5.689,-2.596 l 0.061,0 c 0.408,0 4.01,-0.069 5.299,-2.468 0.076,-0.142 0.362,-0.544 0.673,-0.544 0.313,0 0.599,0.402 0.674,0.54 1.29,2.403 4.89,2.472 5.3,2.472 l 0.059,0 c 4.104,0 5.631,2.496 5.693,2.596 l 0.006,0.019 c 0.502,0.733 0.746,1.49 0.843,2.222 0.806,0.441 0.763,2.255 0.77,2.576 0.223,-0.321 0.702,-1.225 1.702,-1.461 -0.161,-0.856 -0.109,-2.267 0.813,-2.455 0.277,-0.028 0.515,0.388 0.442,0.707 0.794,-2.264 0.133,-3.66 0.729,-3.828 0.767,-0.011 0.799,1.339 0.867,1.378 0.068,-0.12 0.314,-0.527 0.33,-1.138 0.016,-0.707 -0.09,-1.406 0.228,-1.526 1.056,-0.173 0.554,2.924 1.375,2.61 -0.201,-1.371 -0.002,-2.143 0.566,-2.37 -0.022,-0.62 -0.087,-1.235 -0.35,-1.235 -1.522,-0.337 -2.912,0.862 -4.237,0.503 -0.09,0.057 -0.141,0.09 -0.141,0.09 -2.441,1.312 -3.982,0.314 -4.135,0.448 -0.688,0.63 -0.946,-0.318 -1.146,-0.205 -1.279,0.721 -1.984,-0.506 -2.317,-0.561 -0.297,-0.045 -0.846,0.642 -1.433,-0.799 -0.265,-0.638 -1.69,-0.913 -1.803,-0.946 -0.571,-0.067 -0.704,0.325 -0.704,0.325 -0.053,0.163 -0.11,0.301 -0.168,0.417 -0.051,0.11 -0.12,0.197 -0.208,0.282 -0.19,0.178 -0.395,0.213 -0.576,0.193 -0.422,-0.029 -0.754,-0.379 -0.754,-0.803 0,-0.184 0.059,-0.352 0.165,-0.491 0.043,-0.036 0.17,0.147 0.357,0.135 0.315,-0.02 0.569,-0.255 0.569,-0.568 l 0,-0.012 c 0.037,-0.649 -0.949,-1.302 -0.949,-1.302 -0.575,-0.513 -1.292,0.201 -1.292,0.201 -0.415,0.321 -0.685,0.356 -0.685,0.356 -0.416,-0.016 -0.607,-0.462 -0.607,-0.462 0,0 -0.191,0.446 -0.609,0.462 0,0 -0.271,-0.035 -0.685,-0.356 0,0 -0.717,-0.714 -1.29,-0.201 0,0 -0.99,0.653 -0.949,1.302 l 0,0.012 c 0,0.313 0.254,0.548 0.567,0.568 0.188,0.012 0.317,-0.171 0.359,-0.135 0.102,0.139 0.166,0.307 0.166,0.491 0,0.424 -0.336,0.774 -0.76,0.803 -0.174,0.02 -0.383,-0.015 -0.571,-0.193 -0.088,-0.085 -0.158,-0.172 -0.207,-0.282 -0.062,-0.116 -0.119,-0.254 -0.17,-0.417 0,0 -0.134,-0.392 -0.703,-0.325 -0.116,0.033 -1.539,0.308 -1.803,0.946 -0.592,1.441 -1.139,0.754 -1.434,0.799 -0.336,0.055 -1.037,1.282 -2.316,0.561 -0.201,-0.113 -0.462,0.835 -1.149,0.205 -0.133,-0.117 -1.341,0.634 -3.29,-0.072 -0.117,0.23 -0.735,0.347 -0.907,0.415 -0.399,0.111 -0.751,0.426 -1.001,0.55 -0.549,0.278 -1.441,0.103 -2.068,0.178 -0.243,0.033 -0.586,0.166 -0.798,0.292 -0.811,0.498 -1.733,1.113 -2.246,1.833 -0.085,0.12 -0.286,0.398 -0.324,0.442 -0.247,0.314 -0.373,0.548 -0.562,1.068 -0.281,0.995 0.149,2.061 0.296,3.068 0.068,0.482 0.082,0.676 0.103,0.963 -0.779,-0.199 -1.803,-0.221 -3.059,0.129 0.32,-1.067 0.375,-2.195 0.255,-3.078 0.491,-0.37 0.778,-0.97 0.81,-1.261 0.058,-0.506 -0.179,-1.035 0.12,-1.445 0.437,-0.606 1.408,-1.165 2.007,-1.568 0.201,-0.132 2.951,-2.259 3.308,-2.335 0.388,-0.077 0.633,0.211 0.977,0.153 0.119,-0.026 0.206,-0.114 0.3,-0.186 0,0 0.227,-0.252 0.571,-0.475 -0.835,-0.517 -1.876,-1.146 -2.645,-1.526 0,0 -1.237,-0.673 -0.651,-0.687 0,0 0.865,0.025 0.941,-0.16 0,0 -0.368,-0.146 -0.925,-0.389 1.298,-0.464 2.625,-0.881 3.977,-1.248 0.861,0.846 1.965,1.762 3.041,2.163 0,0 1.552,-0.061 2.059,1.07 0.155,0.349 0.808,-0.654 2.17,0.097 0.125,0.068 0.329,-0.297 0.718,-0.402 0.125,-0.03 -0.556,-0.133 -0.418,-0.729 0.022,-0.077 -1.11,-0.013 -1.482,-0.638 -0.107,-0.184 -2.512,-0.132 -4.639,-1.936 0.4,-0.097 0.803,-0.19 1.209,-0.278 0.709,0.534 1.563,0.896 2.552,0.838 0,0 1.306,-0.081 1.856,-1.635 0.821,-0.119 1.647,-0.218 2.482,-0.302 -0.009,0.003 -0.016,0.007 -0.025,0.007 0.227,0.103 1.374,0.663 0.858,1.341 0,0 -0.273,0.347 -0.749,-0.11 0,0 -0.305,-0.273 -0.433,0.158 0,0 -0.032,0.238 -0.158,0.447 0,0 -0.228,0.332 0.223,0.178 0,0 0.417,-0.128 0.803,-0.073 0.408,0.022 0.729,0.358 0.729,0.776 0,0.429 -0.302,0.839 -0.735,0.839 -0.013,0 -0.087,-0.022 -0.089,-0.065 0.063,-0.051 0.105,-0.13 0.105,-0.22 0,-0.159 -0.13,-0.321 -0.279,-0.281 -0.471,0.129 -0.339,1.045 0.307,1.073 0,0 0.564,-0.028 1.04,-0.601 0,0 1.091,-1.63 2.093,-1.978 0.071,-0.025 -0.178,-0.588 0.462,-0.782 0.074,-0.022 -0.016,-0.511 0.638,-0.464 0.019,0 0.145,-0.219 0.301,-0.561 0.571,-0.014 1.147,-0.027 1.727,-0.027 0.578,0 1.155,0.013 1.726,0.027 0.156,0.342 0.281,0.561 0.299,0.561 0.655,-0.047 0.566,0.442 0.639,0.464 0.642,0.194 0.389,0.757 0.461,0.782 1.004,0.348 2.092,1.978 2.092,1.978 0.475,0.573 1.039,0.601 1.039,0.601 0.647,-0.028 0.783,-0.944 0.309,-1.073 -0.148,-0.04 -0.282,0.122 -0.282,0.281 0,0.09 0.048,0.169 0.111,0.22 -0.005,0.043 -0.08,0.065 -0.096,0.065 -0.428,0 -0.729,-0.41 -0.729,-0.839 0,-0.418 0.322,-0.754 0.725,-0.776 0.389,-0.055 0.804,0.073 0.804,0.073 0.451,0.154 0.223,-0.178 0.223,-0.178 -0.128,-0.209 -0.158,-0.447 -0.158,-0.447 -0.124,-0.431 -0.43,-0.158 -0.43,-0.158 -0.479,0.457 -0.752,0.11 -0.752,0.11 -0.517,-0.678 0.629,-1.238 0.858,-1.341 -0.007,0 -0.014,-0.004 -0.023,-0.007 0.834,0.084 1.664,0.183 2.481,0.302 0.55,1.554 1.856,1.635 1.856,1.635 0.988,0.058 1.842,-0.304 2.552,-0.838 0.405,0.088 0.809,0.181 1.21,0.278 -2.128,1.804 -4.536,1.752 -4.643,1.936 -0.366,0.625 -1.501,0.561 -1.48,0.638 0.139,0.596 -0.541,0.699 -0.419,0.729 0.387,0.105 0.596,0.47 0.723,0.402 1.357,-0.751 2.014,0.252 2.169,-0.097 0.506,-1.131 2.055,-1.07 2.055,-1.07 1.074,-0.401 2.181,-1.317 3.043,-2.165 1.237,0.334 2.451,0.718 3.641,1.137 -0.004,0.015 -0.011,0.031 -0.017,0.044 -0.019,0.063 -0.043,0.128 -0.071,0.198 -0.01,0.024 -0.014,0.044 -0.026,0.065 0,0 -10e-4,0.001 -0.004,0.001 -0.048,0.106 -0.109,0.214 -0.174,0.319 l 0.003,0 c -0.312,0.52 -0.765,1.037 -0.916,1.209 -0.003,0 -0.005,0.003 -0.007,0.005 -0.03,0.034 -0.048,0.05 -0.046,0.053 -0.007,0 0.893,1.364 1.454,0.438 0.049,-0.123 -0.055,-0.445 -0.614,-0.448 0,-0.004 0.653,-1.017 0.816,-1.729 0.006,0 0.014,0.006 0.019,0.006 0.278,0.105 0.47,0.168 0.572,0.201 0.052,0.016 0.108,0.022 0.16,0.033 -0.35,0.69 -0.872,1.078 -0.725,1.307 0.135,0.061 0.625,-0.187 0.903,0.228 0.067,0.099 0.135,0.596 0.201,1.128 0.349,-0.192 0.76,-0.202 0.888,-0.209 0.921,0.021 1.267,1.411 1.015,1.865 0.134,0.087 0.678,0.532 0.729,0.415 0.288,-0.658 1.787,-1.363 1.653,0.117 0.239,-0.716 0.42,-1.538 1.253,-1.47 0.607,0.143 0.213,1.178 0.43,1.178 0.178,-0.299 0.433,-1.484 1.33,-1.198 0.272,0.109 0.485,0.307 0.492,0.705 0.046,1.134 -3.217,7.096 -3.507,9.68 -0.051,0.016 -0.1,0.03 -0.154,0.058 -0.317,0.159 -0.347,0.674 -0.293,1.047 0.003,0.028 0.01,0.048 0.015,0.07 -0.391,0.072 -1.008,0.416 -1.108,1.504 0,0.977 0.429,1.46 0.521,1.46 0.037,0 0.046,-0.062 0.034,-0.096 -0.251,-0.766 -0.429,-1.685 0.131,-2.197 0.114,-0.096 0.324,-0.194 0.57,-0.219 0.168,0.332 0.399,0.491 0.449,0.487 0.031,-0.005 0.024,-0.052 0.014,-0.077 -0.308,-0.527 -0.298,-1.254 -0.014,-1.587 0.133,-0.151 0.396,-0.256 0.594,-0.266 0.905,0.325 1.37,2.064 1.574,2.599 0.604,-0.128 -0.981,-3.624 0.241,-4.376 0.499,0.043 0.786,0.624 0.97,1.13 0.391,-1.029 -1.29,-3.199 -0.078,-3.686 0.744,-0.187 1.006,1.711 1.023,1.469 0.214,-2.902 -1.305,-4.298 -0.334,-4.749 0.819,-0.383 1.104,1.977 1.102,1.679 -0.025,-3.088 -1.577,-3.949 -0.916,-4.489 0.764,-0.308 1.311,1.561 1.3,1.121 -0.068,-2.77 -1.452,-3.501 -0.835,-4.376 0.712,-1.008 2.038,1.803 2.106,1.276 0.081,-0.647 -1.506,-3.85 -0.594,-4.073 0.775,-0.189 1.034,0.911 1.103,1.139 C 0.073,-10.354 0.155,-2.607 0,0 m -23.675,14.593 c -0.033,-0.037 -0.107,-0.04 -0.136,-0.021 -0.623,0.321 -1.814,0.296 -2.665,-0.154 -0.62,-0.325 -1.121,-0.952 -1.218,-0.998 -0.105,-0.051 1.017,1.66 2.874,1.843 1.112,-0.012 1.234,-0.574 1.145,-0.67 m 4.017,-5.155 c -0.255,-0.452 -0.633,-0.982 -1.207,-1.125 -1.056,-0.253 -2.114,0.613 -2.146,0.738 -0.054,0.124 0.871,-0.431 1.75,-0.369 0.665,0.047 1.184,0.507 1.562,0.815 0.041,0.056 0.085,0 0.041,-0.059 m -44.795,-28.884 0,0 c 0,-0.004 0.003,-0.004 0.003,-0.004 l 0.001,0 0.002,-0.006 c 0.137,-0.107 0.315,-0.206 0.451,-0.33 0.042,-0.041 0.083,-0.081 0.112,-0.129 -0.077,-0.173 -0.252,-0.156 -0.472,-0.068 -0.016,0.006 -0.03,0.01 -0.048,0.018 -0.191,0.091 -0.382,0.212 -0.512,0.306 -0.169,-0.254 0.149,-0.515 0.307,-0.73 -0.028,-0.081 -0.113,-0.117 -0.211,-0.132 -0.003,0 -0.006,0.003 -0.011,0.003 -0.121,-0.018 -0.261,0.004 -0.351,0.042 l -0.005,0 c -0.005,0 -0.011,0.006 -0.015,0.006 -0.317,0.147 -0.371,0.607 -0.375,0.864 -0.014,0.218 -0.139,0.62 -0.535,0.84 0.619,0.402 1.568,-0.596 1.659,-0.68 m 5.689,34.42 c 0.933,-0.349 1.014,0.845 1.243,0.566 0.324,-0.544 -0.568,-1.375 -1.243,-0.566 m 1.178,0.965 c -0.377,0.029 -0.661,0.27 -1.006,0 -0.033,-0.026 -0.519,-0.395 -0.414,-0.859 0.036,-0.311 -0.415,-0.454 -0.563,-0.264 -0.343,0.775 0.906,1.851 1.211,1.945 0.709,0.26 1.237,-0.178 2.008,-0.293 0.452,-0.065 0.933,0.005 1.3,-0.026 0.834,-0.075 0.614,-0.683 0.471,-0.774 -0.693,-0.196 -1.089,0.337 -1.679,0.421 -0.431,0.048 -0.899,-0.191 -1.328,-0.15 m 3.187,-4.935 c -1.007,0.354 -2.17,0.519 -2.598,1.331 1.465,-0.111 2.912,-0.133 3.836,-0.651 0.04,-0.023 0.072,-0.048 0.113,-0.071 0.285,-0.194 1.051,-0.8 1.383,-1.936 -1.243,0.777 -1.689,0.958 -2.734,1.327 m 7.53,-8.712 c -0.285,-0.07 -0.341,1.202 -1.871,0.898 -0.83,-0.369 -1.447,-0.139 -1.968,0.077 2.18,1.225 4.002,-0.015 3.839,-0.975 m 22.473,-3.259 c 0.098,0.019 0.202,0.027 0.308,0.024 0.007,0 0.011,0.003 0.019,0.003 0.108,-0.003 0.219,-0.018 0.326,-0.044 0.066,-0.007 0.283,-0.405 0.379,-0.807 l 0.002,0 c 0.026,-0.096 0.195,-0.703 0.406,-0.907 0.204,-0.203 0.122,-0.607 -0.377,-0.543 -0.01,0 -0.019,0 -0.031,0.002 -0.531,0.088 -1.135,0.917 -0.885,1.746 -0.142,0.027 -0.265,0.027 -0.379,0.014 l 0,0.001 c -0.006,0 -0.01,-0.001 -0.015,-0.001 -0.067,-0.01 -0.131,-0.027 -0.19,-0.05 -0.016,-0.008 -0.034,-0.012 -0.051,-0.022 -0.036,-0.014 -0.068,-0.036 -0.101,-0.055 -0.028,-0.018 -0.058,-0.032 -0.084,-0.051 -0.126,-0.107 -0.175,-0.301 -0.356,-0.308 0.014,0.316 0.195,0.583 0.463,0.764 0.003,0.004 0.007,0.006 0.011,0.009 0.161,0.108 0.35,0.185 0.555,0.225 m -22.156,-2.905 c -0.016,-0.04 -0.031,-0.081 -0.044,-0.121 -0.03,-0.072 -0.06,-0.139 -0.093,-0.204 -0.015,-0.031 -0.031,-0.059 -0.048,-0.089 -0.024,-0.043 -0.051,-0.086 -0.077,-0.128 -0.016,-0.029 -0.035,-0.054 -0.054,-0.08 -0.042,-0.059 -0.085,-0.117 -0.13,-0.171 -0.014,-0.013 -0.027,-0.027 -0.042,-0.037 -0.04,-0.044 -0.081,-0.081 -0.123,-0.114 -0.019,-0.015 -0.036,-0.029 -0.056,-0.044 -0.055,-0.04 -0.116,-0.077 -0.178,-0.105 -0.006,-0.005 -0.013,-0.005 -0.019,-0.011 -0.059,-0.025 -0.122,-0.047 -0.19,-0.062 -0.014,-0.004 -0.031,-0.007 -0.05,-0.008 -0.074,-0.015 -0.149,-0.022 -0.227,-0.021 -0.032,0.054 -0.038,0.112 -0.038,0.161 0,0 -10e-4,-0.002 -10e-4,-0.005 -0.002,0.228 0.238,0.434 0.342,0.698 0.101,0.238 0.078,0.402 0.216,0.579 0.242,0.031 0.437,-0.058 0.507,0.163 -0.352,0.286 -0.382,0.867 0.076,1.331 0.654,0.668 -0.004,2.076 0.122,2.245 0.194,-0.165 0.335,-0.632 0.396,-1.221 0.005,-0.048 0.009,-0.095 0.013,-0.143 0.004,-0.062 0.01,-0.124 0.012,-0.192 0.004,-0.052 0.006,-0.105 0.007,-0.158 0.003,-0.051 0.003,-0.1 0.004,-0.147 0,-0.047 0,-0.087 -0.001,-0.132 0,-0.08 -0.004,-0.161 -0.006,-0.243 -0.003,-0.048 -0.006,-0.096 -0.007,-0.146 -0.006,-0.056 -0.009,-0.107 -0.013,-0.165 -0.006,-0.038 -0.009,-0.079 -0.013,-0.119 -0.006,-0.083 -0.015,-0.164 -0.026,-0.243 -0.009,-0.052 -0.016,-0.103 -0.023,-0.155 -0.009,-0.053 -0.02,-0.105 -0.031,-0.158 -0.006,-0.041 -0.016,-0.083 -0.025,-0.122 -0.008,-0.053 -0.021,-0.1 -0.033,-0.151 -0.018,-0.077 -0.037,-0.149 -0.06,-0.226 -0.014,-0.042 -0.028,-0.085 -0.042,-0.128 -0.015,-0.044 -0.029,-0.087 -0.045,-0.128 m 21.119,-4.795 c -0.141,-0.235 -1.511,-2.352 -5.085,-2.352 -0.324,0 -3.191,-0.055 -4.17,-1.88 -0.002,0 -0.021,-0.032 -0.056,-0.083 -0.117,-0.198 -0.479,-0.78 -0.638,-1.098 -0.03,-0.061 -0.094,-0.098 -0.162,-0.098 -0.069,0 -0.133,0.033 -0.164,0.098 -0.158,0.318 -0.521,0.9 -0.637,1.098 -0.036,0.051 -0.055,0.083 -0.055,0.083 -0.98,1.825 -3.849,1.88 -4.173,1.88 -3.58,0 -4.948,2.12 -5.09,2.357 -1.782,2.615 -0.109,5.573 -0.09,5.602 1.465,2.533 1.319,4.272 1.275,4.595 0.002,2.794 -1.753,4.913 -1.953,5.143 -0.196,0.224 -0.216,0.428 -0.201,0.557 0.038,0.259 0.23,0.408 0.296,0.431 0.394,0.273 1.245,0.805 1.607,1.03 l 0.165,0.106 c 0.026,0.019 0.092,0.043 0.127,0.043 0.11,0 0.2,-0.072 0.362,-0.197 0.347,-0.27 0.995,-0.771 2.125,-0.771 0.197,0 0.402,0.015 0.614,0.048 0.591,0.088 1.558,0.582 1.569,0.585 0.303,0.162 0.668,0.321 0.844,0.398 l 0.079,0.034 c 1.589,0.662 2.927,0.708 3.3,0.708 0.371,0 1.711,-0.046 3.284,-0.702 l 0.089,-0.036 c 0.163,-0.073 0.546,-0.24 0.849,-0.402 0.009,-0.003 0.978,-0.497 1.568,-0.585 0.212,-0.033 0.415,-0.048 0.615,-0.048 1.126,0 1.774,0.501 2.122,0.771 0.163,0.125 0.255,0.197 0.367,0.197 0.044,0 0.12,-0.029 0.154,-0.06 -0.011,0.007 0.062,-0.038 0.172,-0.108 0.38,-0.239 1.188,-0.752 1.614,-1.034 0.02,0 0.219,-0.149 0.25,-0.402 0.019,-0.135 -0.003,-0.339 -0.201,-0.56 -0.198,-0.233 -1.953,-2.352 -1.95,-5.11 -0.045,-0.359 -0.191,-2.098 1.277,-4.631 0.069,-0.132 1.641,-3.054 -0.099,-5.607 m 2.534,2.159 0,0 c -0.028,-0.043 -0.057,-0.081 -0.088,-0.12 l -0.002,0 c -0.029,-0.033 -0.063,-0.062 -0.095,-0.089 -0.003,0 -0.007,-0.006 -0.01,-0.008 -0.031,-0.022 -0.063,-0.042 -0.097,-0.055 -0.009,-0.006 -0.014,-0.01 -0.022,-0.01 -0.032,-0.014 -0.067,-0.022 -0.097,-0.029 -0.012,0 -0.023,-0.003 -0.033,-0.004 -0.034,-0.003 -0.068,0 -0.1,0.004 -0.015,0 -0.029,0 -0.046,0.003 -0.032,0.007 -0.066,0.019 -0.1,0.03 -0.019,0.008 -0.038,0.011 -0.057,0.019 -0.034,0.017 -0.069,0.039 -0.103,0.058 -0.021,0.015 -0.043,0.025 -0.066,0.041 -0.039,0.027 -0.084,0.065 -0.127,0.101 -0.017,0.016 -0.034,0.026 -0.054,0.041 0,0 -0.235,0.401 0.127,0.449 0.053,-0.057 0.1,-0.099 0.142,-0.134 0.012,-0.009 0.023,-0.016 0.037,-0.023 0.03,-0.025 0.059,-0.039 0.086,-0.048 0.01,-0.006 0.021,-0.01 0.029,-0.01 0.035,-0.007 0.065,-0.007 0.092,0 0.004,0.003 0.006,0.007 0.011,0.01 0.022,0.009 0.042,0.023 0.059,0.048 0.008,0.008 0.013,0.019 0.02,0.029 0.014,0.018 0.025,0.044 0.037,0.074 0.005,0.011 0.01,0.021 0.014,0.036 0.015,0.04 0.026,0.085 0.036,0.136 0.005,0.017 0.006,0.036 0.009,0.055 0.005,0.036 0.01,0.076 0.016,0.115 0.003,0.029 0.007,0.057 0.009,0.086 0.004,0.033 0.005,0.068 0.008,0.105 0.047,0.63 0.006,1.496 0.193,1.787 0.016,0.029 0.034,0.048 0.055,0.062 0.005,0.005 0.013,0.009 0.018,0.015 0.021,0.011 0.044,0.023 0.07,0.023 l 0.003,0 0.006,0 c 0.039,0 0.07,-0.009 0.097,-0.026 0.012,-0.007 0.02,-0.019 0.03,-0.029 0.013,-0.016 0.024,-0.03 0.033,-0.051 0.007,-0.016 0.012,-0.033 0.019,-0.052 0.007,-0.025 0.013,-0.048 0.016,-0.076 0.004,-0.022 0.006,-0.045 0.009,-0.073 0.003,-0.036 0.003,-0.076 0.004,-0.118 0,-0.021 0.002,-0.039 0,-0.063 0,-0.17 -0.007,-0.382 -0.003,-0.623 0.002,-0.036 0,-0.071 0.002,-0.107 l 0,-0.006 c 0.007,-0.145 0.015,-0.294 0.037,-0.454 0.045,-0.343 -0.032,-0.812 -0.224,-1.119 m 6.611,-1.287 c -1.873,-0.139 -3.097,1.565 -2.993,1.529 0.1,-0.03 0.641,-0.641 1.283,-0.89 0.883,-0.343 2.08,-0.153 2.688,0.327 0.03,0.025 0.103,0.035 0.14,0 0.09,-0.089 0.005,-0.736 -1.118,-0.966 m -34.464,-5.536 c -0.006,-0.033 -0.016,-0.062 -0.034,-0.086 -0.009,-0.015 -0.024,-0.023 -0.037,-0.034 -0.016,-0.014 -0.029,-0.028 -0.048,-0.039 -0.079,-0.034 -0.187,-0.052 -0.317,-0.056 -0.211,0 -0.439,0.033 -0.594,0.062 -0.022,-0.141 0.055,-0.24 0.168,-0.317 -0.002,-10e-4 -0.003,-10e-4 -0.003,-10e-4 0.006,-0.006 0.011,-0.008 0.014,-0.008 0.049,-0.033 0.101,-0.06 0.156,-0.086 0.089,-0.043 0.178,-0.084 0.252,-0.125 0.015,-0.198 -0.335,-0.325 -0.5,-0.325 -0.352,0 -0.592,0.392 -0.708,0.628 -0.03,0.023 -0.063,0.049 -0.102,0.073 -0.028,0.017 -0.054,0.037 -0.083,0.051 -0.307,0.172 -0.77,0.23 -1.221,0.256 0.082,0.806 2.303,0.251 2.362,0.237 0.228,-0.06 0.52,-0.06 0.706,-0.18 0,-0.019 -0.008,-0.031 -0.011,-0.05 m 33.641,-1.93 c -10e-4,0 -0.003,0 -0.004,0.002 -0.016,-0.041 -0.029,-0.083 -0.035,-0.119 -0.421,0.004 -1.316,0.625 -1.328,0.629 -0.124,0.084 -0.516,0.302 -0.849,0.187 l -0.002,0 c -0.003,-0.002 -0.004,-0.002 -0.004,-0.002 -0.359,-0.16 -0.523,-0.529 -0.726,-0.711 -0.026,0.072 -0.044,0.143 -0.058,0.206 -0.002,0.009 -0.005,0.018 -0.007,0.024 -0.01,0.062 -0.013,0.119 -0.016,0.172 0,0.023 0,0.045 0.001,0.067 0.002,0.048 0.006,0.095 0.015,0.139 0.007,0.021 0.014,0.043 0.023,0.067 0.018,0.057 0.046,0.115 0.081,0.162 0.018,0.03 0.038,0.06 0.061,0.087 0.019,0.019 0.037,0.035 0.058,0.053 0.034,0.028 0.069,0.057 0.109,0.079 0.017,0.011 0.029,0.019 0.045,0.029 0.191,0.097 0.434,0.14 0.686,0.125 -0.002,0 -0.002,10e-4 -0.003,10e-4 0.335,-0.022 0.683,-0.144 0.937,-0.363 0.306,-0.266 0.905,-0.346 1.277,-0.365 -0.003,-0.004 -0.184,-0.259 -0.261,-0.469 m 8.167,24.459 c -0.244,-0.205 -0.833,-0.516 -1.231,-0.607 -0.768,-0.19 -1.486,0.081 -1.808,0.553 0.571,0.182 1.066,-0.21 1.84,-0.118 0.226,0.025 0.522,0.084 0.733,0.142 0.23,0.074 0.401,0.299 0.644,0.299 0.09,-0.093 -0.097,-0.199 -0.178,-0.269 m 7.298,-20.995 C -1.8,-12.57 -2.171,-14.528 -2.244,-14.361 -0.607,0.417 -1.507,4.078 -1.784,4.023 -2.015,3.939 -2.284,2.2 -3.1,2.73 c -0.802,0.515 1.837,3.776 0.786,5.574 -0.242,0.287 -0.464,-0.405 -0.885,-0.283 -1.089,0.361 0.596,3.172 0.28,3.468 -0.236,0.212 -1.057,0.377 -1.084,1.426 -0.006,0.469 0.314,0.855 -0.072,1.25 -0.303,0.293 -0.246,-0.276 -0.565,-0.135 -0.509,0.542 -0.043,1.155 -0.292,1.557 -0.143,0.106 -0.49,-0.331 -0.767,-0.11 -0.305,0.246 0.164,0.718 -0.202,0.89 -0.48,-0.067 -1.195,-0.593 -1.052,-1.379 0.074,-0.406 0.556,-0.677 0.524,-1.137 -0.022,-0.398 -0.515,-0.871 -0.607,-1.079 -0.703,-1.593 0.482,-1.923 0.317,-2.486 -0.075,-0.269 -0.58,-0.427 -0.905,-0.296 -0.431,0.176 -0.527,1.603 -0.385,2.193 0.163,0.666 1.09,1.479 1.087,1.847 -0.005,0.406 -0.45,0.877 -0.498,1.427 -0.077,0.865 0.573,1.7 1.431,1.523 0.551,-0.112 0.921,-0.588 1.257,-0.995 0.137,-0.159 0.325,-0.298 0.438,-0.437 0.99,-1.221 1.776,-3.4 2.254,-5.148 1.419,-5.147 2.079,-13.249 0.394,-22.197"
             id="path320"
             style="fill:#ffffff;fill-opacity:1;fill-rule:nonzero;stroke:none" /></g></g></g></g></svg>