<?xml version="1.0" encoding="UTF-8" standalone="no"?>
<svg
   viewBox="0 0 25.000001 25.000001"
   version="1.1"
   id="svg1"
   width="25"
   height="25"
   xmlns="http://www.w3.org/2000/svg"
   xmlns:svg="http://www.w3.org/2000/svg">
  <defs
     id="defs1" />
  <path
     fill="currentColor"
     d="M 8.9583724,24.977618 C 8.3070383,24.897265 7.480969,24.599676 6.9275723,24.246142 6.7772286,24.150077 6.5048245,23.934091 6.3222335,23.766099 5.7016817,23.195223 5.3106991,22.5451 5.0840946,21.70731 c -0.057676,-0.213488 -0.066242,-0.648483 -0.078743,-4.030228 -0.012502,-3.269487 -0.00531,-3.834063 0.045356,-4.104671 0.2563878,-1.356224 1.1725201,-2.489463 2.5017226,-3.094569 0.2854386,-0.129991 0.7987857,-0.281432 1.1848222,-0.349621 0.389626,-0.06873 1.2575115,-0.06568 1.6373306,0.0057 1.880761,0.354622 3.221625,1.574638 3.630177,3.302987 0.06426,0.272338 0.06967,0.581802 0.06967,4.082547 0,2.083341 0.0072,3.787881 0.01424,3.787881 0.0073,0 0.130346,-0.0843 0.272708,-0.187165 0.77252,-0.558863 1.407122,-1.210248 1.905256,-1.955637 1.573548,-2.354753 1.502624,-5.386456 -0.180348,-7.705585 C 14.96321,9.91107 13.193814,8.8197073 11.165082,8.4233197 10.658918,8.3243266 10.016188,8.258973 9.5474269,8.2586156 9.1084124,8.2584013 8.5298215,8.1725464 8.1179654,8.0465206 7.3936553,7.8249986 6.8767196,7.5272842 6.322501,7.0124565 5.5466774,6.2917671 5.1337679,5.4672616 5.0352056,4.441893 4.9207518,3.2508017 5.3691224,2.1221177 6.302985,1.250919 7.0768446,0.52897865 8.0060469,0.12161042 9.1125554,0.01920498 10.705015,-0.12810786 12.390762,0.58301175 13.278934,1.7769239 c 0.242331,0.3257669 0.53222,0.907554 0.647993,1.3005313 0.09387,0.3188566 0.103558,0.4122437 0.106063,1.0280824 0.0019,0.6021794 -0.0077,0.7125473 -0.08913,0.9944416 -0.118561,0.409566 -0.270406,0.7472954 -0.493474,1.097757 -0.09855,0.1546337 -0.170162,0.2943223 -0.15945,0.3102861 0.01073,0.016074 0.103742,0.057678 0.20641,0.092672 0.371592,0.1267777 1.329188,0.590769 1.768466,0.8570568 1.99784,1.2109819 3.4523,2.9313469 4.189734,4.9557479 1.020783,2.802262 0.59193,5.844639 -1.166574,8.275622 -1.664759,2.301365 -4.251157,3.805491 -7.260494,4.222306 -0.583433,0.08068 -1.6681721,0.115172 -2.0698496,0.06549 z m 1.0530836,-2.405644 c 0.34388,-0.08176 0.597217,-0.22022 0.885721,-0.484153 0.270781,-0.24768 0.461695,-0.550251 0.538012,-0.852555 0.02624,-0.103743 0.04034,-1.400347 0.04073,-3.706695 2.84e-4,-2.96263 -0.0084,-3.578772 -0.05534,-3.73862 -0.256013,-0.878056 -1.179523,-1.445789 -2.1498091,-1.321619 -0.7485042,0.09588 -1.4118916,0.630642 -1.6054992,1.294407 -0.043391,0.14892 -0.053387,0.85161 -0.053749,3.771012 -4.466e-4,3.481902 0.00181,3.594736 0.077138,3.814615 0.1046336,0.305483 0.2522097,0.528576 0.5016158,0.758564 0.4739578,0.437081 1.1802514,0.617446 1.8211755,0.465044 z M 10.046276,5.8144019 C 10.970496,5.5971643 11.599602,4.7080382 11.439652,3.8451422 11.280558,2.9869961 10.490376,2.3770318 9.5377309,2.3770318 c -1.0170869,0 -1.8290677,0.6864952 -1.9119891,1.6164948 -0.072497,0.8130061 0.5386663,1.6105663 1.3953216,1.8208575 0.2818135,0.069095 0.7309165,0.069095 1.0252126,1.78e-5 z"
     id="path1"
     style="fill:#006cb7;fill-opacity:1;" />
</svg>
